<svg xmlns="http://www.w3.org/2000/svg" xmlns:xlink="http://www.w3.org/1999/xlink" width="277.83" height="154.851" viewBox="0 0 277.83 154.851">
  <defs>
    <linearGradient id="linear-gradient" y1="0.5" x2="1" y2="0.5" gradientUnits="objectBoundingBox">
      <stop offset="0" stop-color="#e64040"/>
      <stop offset="1" stop-color="#ffc155"/>
    </linearGradient>
  </defs>
  <g id="Grupo_125" data-name="Grupo 125" transform="translate(-61.951 -260.639)">
    <g id="Grupo_121" data-name="Grupo 121" transform="translate(-423.254 -58.44)">
      <g id="Grupo_84" data-name="Grupo 84" transform="translate(485.204 327.803)" opacity="0.32">
        <rect id="Rectángulo_29" data-name="Rectángulo 29" width="196.866" height="146.127" transform="translate(196.866 146.127) rotate(180)"/>
      </g>
      <g id="Grupo_85" data-name="Grupo 85" transform="translate(493.228 327.803)">
        <rect id="Rectángulo_30" data-name="Rectángulo 30" width="188.842" height="137.273" transform="translate(188.842 137.273) rotate(180)" fill="#fff"/>
      </g>
      <g id="Grupo_86" data-name="Grupo 86" transform="translate(493.228 327.803)">
        <rect id="Rectángulo_31" data-name="Rectángulo 31" width="188.842" height="16.58" transform="translate(188.842 16.58) rotate(180)" fill="url(#linear-gradient)"/>
      </g>
      <path id="Rectángulo_33" data-name="Rectángulo 33" d="M3.132,0H23.8a3.132,3.132,0,0,1,3.132,3.132v0A3.133,3.133,0,0,1,23.8,6.265H3.133A3.133,3.133,0,0,1,0,3.133v0A3.132,3.132,0,0,1,3.132,0Z" transform="translate(501.116 332.961)" fill="#f5f7ff"/>
      <rect id="Rectángulo_34" data-name="Rectángulo 34" width="98.87" height="3.398" transform="translate(507.064 402.153)" fill="#e6e6e6"/>
      <rect id="Rectángulo_35" data-name="Rectángulo 35" width="73.331" height="3.398" transform="translate(507.064 408.274)" fill="#e6e6e6"/>
      <rect id="Rectángulo_36" data-name="Rectángulo 36" width="46.498" height="3.398" transform="translate(507.064 421.575)" fill="#e6e6e6"/>
      <rect id="Rectángulo_37" data-name="Rectángulo 37" width="83.537" height="3.398" transform="translate(507.064 427.695)" fill="#e6e6e6"/>
      <rect id="Rectángulo_38" data-name="Rectángulo 38" width="78.257" height="3.399" transform="translate(507.064 442.321)" fill="#e6e6e6"/>
      <rect id="Rectángulo_39" data-name="Rectángulo 39" width="95.56" height="3.398" transform="translate(507.064 448.442)" fill="#e6e6e6"/>
      <rect id="Rectángulo_40" data-name="Rectángulo 40" width="2.484" height="9.519" transform="translate(502.239 402.153)" fill="#e55765"/>
      <rect id="Rectángulo_41" data-name="Rectángulo 41" width="2.484" height="9.519" transform="translate(502.239 421.575)" fill="#e55765"/>
      <rect id="Rectángulo_42" data-name="Rectángulo 42" width="2.484" height="9.519" transform="translate(502.239 442.321)" fill="#e55765"/>
      <g id="Grupo_92" data-name="Grupo 92" transform="translate(628.003 442.509)">
        <g id="Grupo_88" data-name="Grupo 88">
          <path id="Rectángulo_43" data-name="Rectángulo 43" d="M6.809,0h0a6.809,6.809,0,0,1,6.809,6.809v0a6.808,6.808,0,0,1-6.808,6.808h0A6.809,6.809,0,0,1,0,6.809v0A6.809,6.809,0,0,1,6.809,0Z" fill="#e55765"/>
        </g>
        <g id="Grupo_91" data-name="Grupo 91" transform="translate(2.702 3.81)">
          <g id="Grupo_90" data-name="Grupo 90">
            <g id="Grupo_89" data-name="Grupo 89">
              <path id="Trazado_158" data-name="Trazado 158" d="M1350.852,1240.88l-3.443-3a.678.678,0,0,1,.891-1.023l2.435,2.123,3.471-3.872a.678.678,0,0,1,1.01.905Z" transform="translate(-1347.177 -1234.881)" fill="#f3f3f3"/>
            </g>
          </g>
        </g>
      </g>
      <g id="Grupo_95" data-name="Grupo 95" transform="translate(627.996 421.756)">
        <g id="Grupo_94" data-name="Grupo 94">
          <g id="Grupo_93" data-name="Grupo 93">
            <path id="Trazado_159" data-name="Trazado 159" d="M1341.822,1104.49H1334.4a3.107,3.107,0,0,1-3.1-3.1v-7.424a3.107,3.107,0,0,1,3.1-3.1h7.425a3.107,3.107,0,0,1,3.1,3.1v7.424A3.107,3.107,0,0,1,1341.822,1104.49Zm-7.425-12.767a2.242,2.242,0,0,0-2.239,2.24v7.424a2.242,2.242,0,0,0,2.239,2.239h7.425a2.242,2.242,0,0,0,2.239-2.239v-7.424a2.242,2.242,0,0,0-2.239-2.24Z" transform="translate(-1331.294 -1090.858)" fill="#e55765"/>
          </g>
        </g>
      </g>
      <g id="Grupo_98" data-name="Grupo 98" transform="translate(648.499 442.503)">
        <g id="Grupo_97" data-name="Grupo 97">
          <g id="Grupo_96" data-name="Grupo 96">
            <path id="Trazado_160" data-name="Trazado 160" d="M1462.04,1226.137h-7.424a3.107,3.107,0,0,1-3.1-3.1v-7.424a3.107,3.107,0,0,1,3.1-3.1h7.424a3.106,3.106,0,0,1,3.1,3.1v7.424A3.106,3.106,0,0,1,1462.04,1226.137Zm-7.424-12.767a2.242,2.242,0,0,0-2.24,2.239v7.424a2.242,2.242,0,0,0,2.24,2.239h7.424a2.241,2.241,0,0,0,2.239-2.239v-7.424a2.242,2.242,0,0,0-2.239-2.239Z" transform="translate(-1451.512 -1212.506)" fill="#e55765"/>
          </g>
        </g>
      </g>
      <g id="Grupo_103" data-name="Grupo 103" transform="translate(648.506 421.763)">
        <g id="Grupo_99" data-name="Grupo 99">
          <rect id="Rectángulo_44" data-name="Rectángulo 44" width="13.618" height="13.618" rx="6.809" fill="#e55765"/>
        </g>
        <g id="Grupo_102" data-name="Grupo 102" transform="translate(2.702 3.809)">
          <g id="Grupo_101" data-name="Grupo 101">
            <g id="Grupo_100" data-name="Grupo 100">
              <path id="Trazado_161" data-name="Trazado 161" d="M1471.074,1119.234l-3.443-3a.678.678,0,1,1,.891-1.022l2.435,2.122,3.471-3.872a.678.678,0,1,1,1.01.905Z" transform="translate(-1467.399 -1113.235)" fill="#f3f3f3"/>
            </g>
          </g>
        </g>
      </g>
      <g id="Grupo_106" data-name="Grupo 106" transform="translate(648.499 401.01)">
        <g id="Grupo_105" data-name="Grupo 105" transform="translate(0 0)">
          <g id="Grupo_104" data-name="Grupo 104">
            <path id="Trazado_162" data-name="Trazado 162" d="M1462.04,982.844h-7.424a3.107,3.107,0,0,1-3.1-3.1v-7.424a3.107,3.107,0,0,1,3.1-3.1h7.424a3.107,3.107,0,0,1,3.1,3.1v7.424A3.106,3.106,0,0,1,1462.04,982.844Zm-7.424-12.767a2.242,2.242,0,0,0-2.24,2.24v7.424a2.242,2.242,0,0,0,2.24,2.239h7.424a2.242,2.242,0,0,0,2.239-2.239v-7.424a2.242,2.242,0,0,0-2.239-2.24Z" transform="translate(-1451.512 -969.213)" fill="#e55765"/>
          </g>
        </g>
      </g>
      <g id="Grupo_111" data-name="Grupo 111" transform="translate(628.003 401.016)">
        <g id="Grupo_107" data-name="Grupo 107" transform="translate(0 0)">
          <rect id="Rectángulo_45" data-name="Rectángulo 45" width="13.618" height="13.618" rx="6.809" fill="#e55765"/>
        </g>
        <g id="Grupo_110" data-name="Grupo 110" transform="translate(2.702 3.809)">
          <g id="Grupo_109" data-name="Grupo 109">
            <g id="Grupo_108" data-name="Grupo 108">
              <path id="Trazado_163" data-name="Trazado 163" d="M1350.852,997.588l-3.443-3a.678.678,0,0,1,.891-1.022l2.435,2.122,3.471-3.872a.678.678,0,0,1,1.01.905Z" transform="translate(-1347.177 -991.589)" fill="#f3f3f3"/>
            </g>
          </g>
        </g>
      </g>
      <g id="Grupo_112" data-name="Grupo 112" transform="translate(624.786 351.422)">
        <path id="Trazado_164" data-name="Trazado 164" d="M1352.6,698.521a20.064,20.064,0,1,1-20.063-20.065A19.984,19.984,0,0,1,1352.6,698.521Z" transform="translate(-1312.473 -678.456)" fill="#eef0f7"/>
        <path id="Trazado_165" data-name="Trazado 165" d="M1367.25,752.088a2.459,2.459,0,0,0-.336-.2l-.019-.013,0,0a42.492,42.492,0,0,0-8.553-3.23h0c-.924-.282-1.621-.465-1.862-.526l-.432-.687a21.237,21.237,0,0,1-.035-2.415,8.555,8.555,0,0,0,1.727-4.161c.116.087.206-.1.206-.1-.064-.114.968-2.635.782-3.2-.105-.322-.32-.282-.487-.188.025-.147.051-.3.077-.462,0,0,.409-3.865-1.547-6.018a2.163,2.163,0,0,0-.922-.242c-3.142-.962-5.027-.533-6.207-.027-1.75,1.433-1.882,3.872-1.8,5.216.035.318.071.638.107.95a.05.05,0,0,0,0,.01c.015.124.029.245.043.366-.163-.1-.377-.152-.5.167-.209.561.555,3.078.65,3.233,0,0,.165.258.294.141,0,0,0-.005,0-.006a9.24,9.24,0,0,0,1.695,4.416c-.05.9-.18,1.953-.27,2.627l-.777.811h0l-.123.041v-.005c-8.782,2.344-11.265,3.975-11.265,3.975a2.318,2.318,0,0,0-.673,1.04,20.066,20.066,0,0,0,31.239.64A8.275,8.275,0,0,0,1367.25,752.088Z" transform="translate(-1332.836 -721.267)" fill="#e55765"/>
      </g>
      <g id="Grupo_120" data-name="Grupo 120" transform="translate(503.538 351.498)">
        <g id="Grupo_113" data-name="Grupo 113" transform="translate(0 4.178)">
          <rect id="Rectángulo_46" data-name="Rectángulo 46" width="0.359" height="33.905" fill="#e0e0e0"/>
        </g>
        <g id="Grupo_114" data-name="Grupo 114" transform="translate(25.548 4.178)">
          <rect id="Rectángulo_47" data-name="Rectángulo 47" width="0.359" height="33.905" fill="#e0e0e0"/>
        </g>
        <g id="Grupo_115" data-name="Grupo 115" transform="translate(51.095 4.178)">
          <rect id="Rectángulo_48" data-name="Rectángulo 48" width="0.359" height="33.905" fill="#e0e0e0"/>
        </g>
        <g id="Grupo_116" data-name="Grupo 116" transform="translate(76.643 4.178)">
          <rect id="Rectángulo_49" data-name="Rectángulo 49" width="0.359" height="33.905" fill="#e0e0e0"/>
        </g>
        <g id="Grupo_117" data-name="Grupo 117" transform="translate(102.19 4.178)">
          <rect id="Rectángulo_50" data-name="Rectángulo 50" width="0.359" height="33.905" fill="#e0e0e0"/>
        </g>
        <rect id="Rectángulo_51" data-name="Rectángulo 51" width="4.065" height="1.178" transform="translate(0.18 40.092)" fill="#b8b8b8"/>
        <rect id="Rectángulo_52" data-name="Rectángulo 52" width="6.119" height="0.884" transform="translate(0.18 0)" fill="#d9d9d9"/>
        <rect id="Rectángulo_53" data-name="Rectángulo 53" width="8.68" height="0.884" transform="translate(0.18 1.634)" fill="#d9d9d9"/>
        <rect id="Rectángulo_54" data-name="Rectángulo 54" width="7.184" height="0.884" transform="translate(25.452 0)" fill="#d9d9d9"/>
        <rect id="Rectángulo_55" data-name="Rectángulo 55" width="4.594" height="0.884" transform="translate(25.452 1.634)" fill="#d9d9d9"/>
        <rect id="Rectángulo_56" data-name="Rectángulo 56" width="4.452" height="0.884" transform="translate(51.454 0)" fill="#d9d9d9"/>
        <rect id="Rectángulo_57" data-name="Rectángulo 57" width="5.189" height="0.884" transform="translate(51.454 1.634)" fill="#d9d9d9"/>
        <rect id="Rectángulo_58" data-name="Rectángulo 58" width="6.485" height="0.884" transform="translate(77.002 0)" fill="#d9d9d9"/>
        <rect id="Rectángulo_59" data-name="Rectángulo 59" width="5.189" height="0.884" transform="translate(77.002 1.634)" fill="#d9d9d9"/>
        <rect id="Rectángulo_60" data-name="Rectángulo 60" width="3.873" height="0.884" transform="translate(102.37 0)" fill="#d9d9d9"/>
        <rect id="Rectángulo_61" data-name="Rectángulo 61" width="3.099" height="0.884" transform="translate(102.37 1.634)" fill="#d9d9d9"/>
        <rect id="Rectángulo_62" data-name="Rectángulo 62" width="4.065" height="1.178" transform="translate(25.727 40.092)" fill="#b8b8b8"/>
        <rect id="Rectángulo_63" data-name="Rectángulo 63" width="4.065" height="1.178" transform="translate(51.454 40.092)" fill="#b8b8b8"/>
        <rect id="Rectángulo_64" data-name="Rectángulo 64" width="4.065" height="1.178" transform="translate(77.002 40.092)" fill="#b8b8b8"/>
        <rect id="Rectángulo_65" data-name="Rectángulo 65" width="4.065" height="1.178" transform="translate(102.55 40.092)" fill="#b8b8b8"/>
        <g id="Grupo_118" data-name="Grupo 118" transform="translate(0.18 12.968)">
          <path id="Trazado_166" data-name="Trazado 166" d="M695.924,769.978c-7.969,0-14.9-3.1-22.116-6.328-8.915-3.987-18.134-8.11-30.416-6.981-7.843.721-12.766,3.594-17.109,6.128-3.933,2.3-7.651,4.313-12.686,4.486-8.138.279-10.962-2.843-11.009-3.034v-2h0c.01.035,1.787,3.538,11,3.5,4.537-.021,7.886-1.975,11.763-4.237,4.506-2.629,9.613-5.61,17.867-6.369,12.775-1.174,22.219,3.05,31.353,7.135,9.557,4.274,18.676,8.283,30.208,4.805v1.647A28.717,28.717,0,0,1,695.924,769.978Z" transform="translate(-602.587 -754.937)" fill="#f17c49"/>
        </g>
        <g id="Grupo_119" data-name="Grupo 119" transform="translate(0.18 8.378)">
          <path id="Trazado_167" data-name="Trazado 167" d="M648.093,747.269c-5.882,0-10.547-3.557-15.114-7.04-3.463-2.641-7.056-5.341-11.2-6.672-12.656-4.064-19.132,3.357-19.19,3.423v-2.258c.068-.077,1.224-1.426,4.565-2.714,3.042-1.172,8.147-2.108,15.187.095,4.461,1.4,8.165,4.22,11.748,6.952,7.268,5.542,13.544,10.328,24.443,2.831,8.256-5.678,16.038-11.089,23.695-13.065,7.489-1.933,15.3-.518,22.606,6.055l-.054,2.05c-15.525-14.025-28.744-5.139-45.207,6.183C655.21,746.108,651.453,747.269,648.093,747.269Z" transform="translate(-602.587 -728.022)" fill="#f2804b"/>
        </g>
      </g>
    </g>
    <g id="Grupo_124" data-name="Grupo 124" transform="translate(180.502 297.152) rotate(-25)">
      <g id="Grupo_48" data-name="Grupo 48" transform="translate(5.707 5.413)" opacity="0.3">
        <g id="Grupo_47" data-name="Grupo 47">
          <path id="Trazado_132" data-name="Trazado 132" d="M75.867,37.934A37.933,37.933,0,1,1,37.933,0,37.931,37.931,0,0,1,75.867,37.934Z" fill="#10abd9"/>
        </g>
      </g>
      <g id="Grupo_50" data-name="Grupo 50" transform="translate(18.777 17.399)" opacity="0.3">
        <g id="Grupo_49" data-name="Grupo 49">
          <path id="Trazado_133" data-name="Trazado 133" d="M42.824,21.413A21.412,21.412,0,1,1,21.412,0,21.413,21.413,0,0,1,42.824,21.413Z" fill="#fff"/>
        </g>
      </g>
      <g id="Grupo_60" data-name="Grupo 60" transform="translate(0 0)">
        <g id="Grupo_55" data-name="Grupo 55">
          <g id="Grupo_51" data-name="Grupo 51" transform="translate(64.722 64.723)">
            <rect id="Rectángulo_23" data-name="Rectángulo 23" width="13.429" height="33.402" transform="matrix(0.707, -0.707, 0.707, 0.707, 0, 9.496)" fill="#d1d3d4"/>
          </g>
          <g id="Grupo_52" data-name="Grupo 52" transform="translate(74.881 74.881)">
            <rect id="Rectángulo_24" data-name="Rectángulo 24" width="18.096" height="51.261" transform="translate(0 12.796) rotate(-44.999)" fill="#3d3c3e"/>
          </g>
          <g id="Grupo_53" data-name="Grupo 53" transform="translate(84.953 80.209)">
            <rect id="Rectángulo_25" data-name="Rectángulo 25" width="5.273" height="43.103" transform="matrix(0.707, -0.707, 0.707, 0.707, 0, 3.729)" fill="#fff"/>
          </g>
          <g id="Grupo_54" data-name="Grupo 54">
            <path id="Trazado_134" data-name="Trazado 134" d="M12.652,12.654a43.2,43.2,0,1,0,61.091,0A43.2,43.2,0,0,0,12.652,12.654ZM63.919,63.919a29.306,29.306,0,1,1,0-41.443A29.309,29.309,0,0,1,63.919,63.919Z" transform="translate(0 0)" fill="#3d3c3e"/>
          </g>
        </g>
        <g id="Grupo_59" data-name="Grupo 59" transform="translate(24.374 3.205)">
          <g id="Grupo_56" data-name="Grupo 56" transform="translate(47.162 15.281)">
            <path id="Trazado_135" data-name="Trazado 135" d="M4.2,7.184a1.889,1.889,0,0,1-1.621-.916A37.35,37.35,0,0,0,.384,3.037,1.893,1.893,0,0,1,3.4.748,40.72,40.72,0,0,1,5.817,4.314,1.892,1.892,0,0,1,4.2,7.184Z" transform="translate(0 0)" fill="#fff"/>
          </g>
          <g id="Grupo_57" data-name="Grupo 57" transform="translate(39.802 7.899)">
            <path id="Trazado_136" data-name="Trazado 136" d="M5.495,6.9a1.891,1.891,0,0,1-1.325-.539A37.172,37.172,0,0,0,.744,3.4,1.892,1.892,0,1,1,3.041.388,41.313,41.313,0,0,1,6.818,3.657,1.891,1.891,0,0,1,5.495,6.9Z" transform="translate(0 0)" fill="#fff"/>
          </g>
          <g id="Grupo_58" data-name="Grupo 58" transform="translate(0)">
            <path id="Trazado_137" data-name="Trazado 137" d="M36.638,8.413a1.892,1.892,0,0,1-.9-.227A36.743,36.743,0,0,0,18.3,3.784,36.336,36.336,0,0,0,2.7,7.258,1.892,1.892,0,0,1,1.085,3.835,40.115,40.115,0,0,1,18.3,0a40.527,40.527,0,0,1,19.24,4.858,1.892,1.892,0,0,1-.9,3.555Z" transform="translate(0)" fill="#fff"/>
          </g>
        </g>
      </g>
    </g>
  </g>
</svg>
