<svg xmlns="http://www.w3.org/2000/svg" width="40.146" height="40.146" viewBox="0 0 40.146 40.146">
  <path id="Trazado_156" data-name="Trazado 156" d="M637.635,331.655a20.073,20.073,0,1,0,20.073,20.074A20.074,20.074,0,0,0,637.635,331.655Zm9.083,9.055c-.14.07-6.888.236-6.888.236l-5.076,3.984-.983-.868,1.935-.625.365-2.281-6.7-.21S638.586,334.261,646.718,340.71Zm-.59,22.662-4.627-8.308h-9.044l5.177,11.042c-8.493-.526-9.594-4.522-10.015-5.048a47.966,47.966,0,0,1,12.619-18.4h6.625s-7.326,7.4-6.625,8.1c.754.754,8.728-7.046,9.675-7.046C657.7,358.009,646.128,363.372,646.128,363.372Z" transform="translate(-617.561 -331.655)" fill="#fff"/>
</svg>
