<svg xmlns="http://www.w3.org/2000/svg" width="258.439" height="46.769" viewBox="0 0 258.439 46.769">
  <g id="Grupo_134" data-name="Grupo 134" transform="translate(185.111 -1447.551)">
    <g id="Grupo_131" data-name="Grupo 131" transform="translate(-123.354 1458.019)">
      <path id="Trazado_173" data-name="Trazado 173" d="M736.5,404.333h-7.6L723.1,393.31a8.575,8.575,0,0,1-.458-1.4h-.092l-2.226,12.421h-6.015l4.548-25.372h6.014l-2.15,12h.092q.314-.5,1-1.415l9.27-10.58h7.17l-11.48,12.1Z" transform="translate(-714.306 -378.536)" fill="#fff" stroke="#fff" stroke-miterlimit="10" stroke-width="1"/>
      <path id="Trazado_174" data-name="Trazado 174" d="M745.762,404.86q-5.737,0-8.712-3.548t-1.955-9.245a16.128,16.128,0,0,1,5.412-9.731,15.434,15.434,0,0,1,10.386-3.716q5.718,0,8.609,3.558t1.848,9.376a15.885,15.885,0,0,1-5.388,9.644A15.264,15.264,0,0,1,745.762,404.86Zm4.081-21.321a7.429,7.429,0,0,0-5.432,2.256,10.872,10.872,0,0,0-2.932,5.972q-.675,3.767.793,5.962a5.023,5.023,0,0,0,4.485,2.195,7.38,7.38,0,0,0,5.317-2.132,10.554,10.554,0,0,0,2.885-5.918q.707-3.945-.67-6.14A4.85,4.85,0,0,0,749.843,383.539Z" transform="translate(-709.237 -378.62)" fill="#fff" stroke="#fff" stroke-miterlimit="10" stroke-width="1"/>
      <path id="Trazado_175" data-name="Trazado 175" d="M774.163,404.333h-15.9l4.546-25.372h6.015L765.107,399.7h9.887Z" transform="translate(-703.451 -378.536)" fill="#fff" stroke="#fff" stroke-miterlimit="10" stroke-width="1"/>
      <path id="Trazado_176" data-name="Trazado 176" d="M790.369,404.333H774.355l4.546-25.372h15.4l-.834,4.652h-9.385l-1.011,5.645H791.8l-.831,4.635h-8.733l-1.04,5.8h10Z" transform="translate(-699.476 -378.536)" fill="#fff" stroke="#fff" stroke-miterlimit="10" stroke-width="1"/>
      <path id="Trazado_177" data-name="Trazado 177" d="M813.287,404.333h-7.6l-5.808-11.023a8.626,8.626,0,0,1-.456-1.4h-.094l-2.226,12.421h-6.014l4.546-25.372h6.015l-2.15,12h.092q.312-.5,1-1.415l9.27-10.58h7.17l-11.479,12.1Z" transform="translate(-695.343 -378.536)" fill="#fff" stroke="#fff" stroke-miterlimit="10" stroke-width="1"/>
      <path id="Trazado_178" data-name="Trazado 178" d="M833.616,383.613H826l-3.714,20.72h-6.033l3.714-20.72h-7.579l.834-4.652h21.228Z" transform="translate(-690.083 -378.536)" fill="#fff" stroke="#fff" stroke-miterlimit="10" stroke-width="1"/>
      <path id="Trazado_179" data-name="Trazado 179" d="M840.925,404.86q-5.735,0-8.711-3.548t-1.956-9.245a16.137,16.137,0,0,1,5.413-9.731,15.429,15.429,0,0,1,10.386-3.716q5.716,0,8.608,3.558t1.848,9.376a15.89,15.89,0,0,1-5.387,9.644A15.268,15.268,0,0,1,840.925,404.86Zm4.083-21.321a7.424,7.424,0,0,0-5.432,2.256,10.873,10.873,0,0,0-2.933,5.972q-.675,3.767.793,5.962a5.025,5.025,0,0,0,4.486,2.195,7.376,7.376,0,0,0,5.317-2.132,10.547,10.547,0,0,0,2.885-5.918q.707-3.945-.668-6.14A4.853,4.853,0,0,0,845.007,383.539Z" transform="translate(-685.735 -378.62)" fill="#fff" stroke="#fff" stroke-miterlimit="10" stroke-width="1"/>
      <path id="Trazado_180" data-name="Trazado 180" d="M875.826,404.333h-6.91l-2.982-6.529q-.333-.743-.656-1.327a5.77,5.77,0,0,0-.687-1,2.683,2.683,0,0,0-.8-.638,2.163,2.163,0,0,0-.994-.22h-1.62l-1.741,9.713h-6.015l4.547-25.372h9.534q9.719,0,8.483,6.9a7.761,7.761,0,0,1-.868,2.452,8.589,8.589,0,0,1-1.572,2.025,9.8,9.8,0,0,1-2.17,1.558,12.015,12.015,0,0,1-2.651,1.026l-.012.071a3.122,3.122,0,0,1,1.051.575,6.143,6.143,0,0,1,.913.929,9.986,9.986,0,0,1,.793,1.141c.243.406.46.806.651,1.193Zm-12.607-21.091-1.264,7.06h2.606a5.216,5.216,0,0,0,3.3-1.061,4.271,4.271,0,0,0,1.67-2.672q.6-3.327-3.593-3.327Z" transform="translate(-679.949 -378.536)" fill="#fff" stroke="#fff" stroke-miterlimit="10" stroke-width="1"/>
    </g>
    <path id="Trazado_156" data-name="Trazado 156" d="M640.946,331.655A23.384,23.384,0,1,0,664.33,355.04,23.386,23.386,0,0,0,640.946,331.655ZM651.528,342.2c-.164.082-8.024.275-8.024.275l-5.913,4.642-1.145-1.011,2.254-.728.425-2.657-7.811-.245S642.054,334.691,651.528,342.2Zm-.687,26.4-5.39-9.678H634.915l6.031,12.863c-9.894-.613-11.177-5.268-11.667-5.88a55.878,55.878,0,0,1,14.7-21.438H651.7s-8.535,8.616-7.718,9.433c.878.878,10.168-8.208,11.271-8.208C664.316,362.356,650.84,368.6,650.84,368.6Z" transform="translate(-802.672 1115.896)" fill="#fff"/>
  </g>
</svg>
