<svg xmlns="http://www.w3.org/2000/svg" width="609.04" height="424.683" viewBox="0 0 609.04 424.683">
  <g id="Grupo_209" data-name="Grupo 209" transform="translate(-186.692 356)">
    <path id="Trazado_181" data-name="Trazado 181" d="M757.7-79.129c-8.258-29.624,17.994-30.767,18.572-68.94.237-15.612-8.317-31.513-28.9-38.806-10.114-3.585-20.194-6.048-29.193-11.748-20.507-12.988-20.137-37.7-25.731-58.769-12.287-46.273-59.57-83.033-107.432-81.838-34.5.862-65.7,1.918-97.152,31.205-21.524,20.038-35.512,44.7-55.495,65.355-21.162,21.877-46.948,32.372-75.9,39.4-27.385,6.647-57.174,14.556-78.133,34.49-19.7,18.733-16.826,38.325-8.38,61.325,9.312,25.363-10.882,42.62-31.938,52.5-17.727,8.316-41.328,7.591-49.559,27.485C179.536-5.9,206.046-5.534,230.7-5.534s343.807-1.9,433.011.743c24.01.71,100.612,7.249,111.448-22.681C782.53-47.843,763.467-58.441,757.7-79.129Z" transform="translate(0 7.884)" fill="#ff9100" opacity="0.35"/>
    <g id="Grupo_136" data-name="Grupo 136" transform="translate(691.736 -96.589)">
      <path id="Trazado_182" data-name="Trazado 182" d="M623.389-168.681c-17.826,41.487-52.17,75.347-93.342,93.706" transform="translate(-530.047 184.799)" fill="none" stroke="#717171" stroke-miterlimit="10" stroke-width="1"/>
      <g id="Grupo_135" data-name="Grupo 135" transform="translate(12.263)">
        <path id="Trazado_183" data-name="Trazado 183" d="M589.949-152.485a34.166,34.166,0,0,0,11.761-20.668c.312-1.959.377-4.194-.941-5.678a2.229,2.229,0,0,0-1.384-.8,2.846,2.846,0,0,0-2.228,1.211c-3.1,3.48-4.172,8.293-4.7,12.922s-1.544,8.022-2.5,13.013" transform="translate(-514.102 179.639)" fill="#717171"/>
        <path id="Trazado_184" data-name="Trazado 184" d="M585.607-142.368a34.17,34.17,0,0,0,2.6-23.638c-.491-1.924-1.318-4-3.117-4.839a2.227,2.227,0,0,0-1.589-.185,2.845,2.845,0,0,0-1.564,2c-1.464,4.422-.541,9.267.806,13.727s1.765,7.977,2.862,12.94" transform="translate(-518.224 183.656)" fill="#717171"/>
        <path id="Trazado_185" data-name="Trazado 185" d="M576.325-130.551a34.165,34.165,0,0,0,5.472-23.142c-.252-1.97-.819-4.13-2.5-5.183a2.224,2.224,0,0,0-1.553-.38,2.849,2.849,0,0,0-1.8,1.79c-1.992,4.21-1.668,9.131-.877,13.722s.775,8.133,1.258,13.193" transform="translate(-521.4 189.225)" fill="#717171"/>
        <path id="Trazado_186" data-name="Trazado 186" d="M566.593-120.194a34.164,34.164,0,0,0,5.47-23.142c-.251-1.97-.818-4.13-2.5-5.183a2.227,2.227,0,0,0-1.553-.379,2.849,2.849,0,0,0-1.8,1.79c-1.993,4.21-1.669,9.131-.878,13.722s.777,8.133,1.259,13.193" transform="translate(-525.983 194.102)" fill="#717171"/>
        <path id="Trazado_187" data-name="Trazado 187" d="M551.415-108.344a34.165,34.165,0,0,0,7.839-22.452c-.047-1.984-.387-4.192-1.95-5.414a2.223,2.223,0,0,0-1.506-.538,2.851,2.851,0,0,0-1.973,1.594c-2.418,3.982-2.606,8.909-2.295,13.557s-.071,8.169-.115,13.253" transform="translate(-532.247 199.834)" fill="#717171"/>
        <path id="Trazado_188" data-name="Trazado 188" d="M539.994-100.95a36.455,36.455,0,0,0,9.1-21.322c.172-1.975.115-4.208-1.1-5.614a1.841,1.841,0,0,0-1.231-.718c-.759-.037-1.389.652-1.859,1.34-2.493,3.657-3.177,8.524-3.4,13.175s-.928,8.1-1.506,13.14" transform="translate(-537.626 203.671)" fill="#717171"/>
        <path id="Trazado_189" data-name="Trazado 189" d="M581.311-143.584a37.009,37.009,0,0,0,24.464-4.694c1.811-1.065,3.688-2.5,4.07-4.513a2.18,2.18,0,0,0-.221-1.6,2.834,2.834,0,0,0-2.411-.913c-4.829-.072-9.47,2.306-13.612,4.982s-7.577,4.155-12.291,6.741" transform="translate(-518.169 191.096)" fill="#717171"/>
        <path id="Trazado_190" data-name="Trazado 190" d="M574.468-136.569a37.012,37.012,0,0,0,24.877,1.283c2.012-.6,4.179-1.553,5.031-3.411a2.183,2.183,0,0,0,.168-1.609,2.836,2.836,0,0,0-2.124-1.464c-4.672-1.222-9.745-.019-14.406,1.589s-8.35,2.227-13.546,3.613" transform="translate(-521.392 197.236)" fill="#717171"/>
        <path id="Trazado_191" data-name="Trazado 191" d="M564.246-127.561a37.017,37.017,0,0,0,24.119,6.234c2.093-.188,4.4-.685,5.612-2.336a2.184,2.184,0,0,0,.485-1.544c-.122-.871-.971-1.455-1.787-1.858-4.333-2.133-9.545-1.97-14.434-1.325s-8.627.51-13.994.83" transform="translate(-526.205 203.571)" fill="#717171"/>
        <path id="Trazado_192" data-name="Trazado 192" d="M549.946-113.921a37.011,37.011,0,0,0,24.9.728c2-.647,4.142-1.644,4.953-3.521a2.178,2.178,0,0,0,.132-1.614,2.839,2.839,0,0,0-2.156-1.415c-4.7-1.118-9.743.2-14.368,1.909s-8.3,2.412-13.462,3.913" transform="translate(-532.939 207.649)" fill="#717171"/>
        <path id="Trazado_193" data-name="Trazado 193" d="M538.384-109.015A37.019,37.019,0,0,0,560.29-97.154c2.077.321,4.441.4,6.009-.916a2.184,2.184,0,0,0,.844-1.38,2.832,2.832,0,0,0-1.288-2.234c-3.69-3.114-8.789-4.211-13.688-4.764s-8.5-1.583-13.783-2.567" transform="translate(-538.384 212.896)" fill="#717171"/>
      </g>
    </g>
    <g id="Grupo_140" data-name="Grupo 140" transform="translate(681.858 -170.848)">
      <g id="Grupo_137" data-name="Grupo 137" transform="translate(1.849)">
        <path id="Trazado_194" data-name="Trazado 194" d="M525.162-227.025a.442.442,0,0,1-.416-.409l-.156-2.218a.441.441,0,0,1,.409-.471.437.437,0,0,1,.469.409l.156,2.218a.438.438,0,0,1-.407.469Z" transform="translate(-524.588 230.124)" fill="#599fd2"/>
      </g>
      <g id="Grupo_139" data-name="Grupo 139" transform="translate(0 9.386)">
        <g id="Grupo_138" data-name="Grupo 138">
          <path id="Trazado_195" data-name="Trazado 195" d="M535.72-129.2l-5.864.412-6.525-94.548,2.932-.206,2.932-.206Z" transform="translate(-523.331 223.744)" fill="#c3ecfe"/>
        </g>
      </g>
      <path id="Trazado_196" data-name="Trazado 196" d="M526.307-228.941l-1.185.083-1.791,7.974,5.864-.412Z" transform="translate(-523.331 230.681)" fill="#c3ecfe"/>
    </g>
    <g id="Grupo_142" data-name="Grupo 142" transform="translate(348.006 -162.232)">
      <path id="Trazado_197" data-name="Trazado 197" d="M306.75-212.945c10.427,56.987,50.156,107.8,102.946,131.657" transform="translate(-291.469 229.598)" fill="none" stroke="#717171" stroke-miterlimit="10" stroke-width="1"/>
      <g id="Grupo_141" data-name="Grupo 141">
        <path id="Trazado_198" data-name="Trazado 198" d="M310.762-195.688a34.156,34.156,0,0,1-6.856-22.77c.132-1.98.568-4.172,2.183-5.325a2.223,2.223,0,0,1,1.528-.472,2.85,2.85,0,0,1,1.9,1.678c2.243,4.083,2.217,9.014,1.7,13.644s-.284,8.165-.46,13.244" transform="translate(-292.843 224.266)" fill="#717171"/>
        <path id="Trazado_199" data-name="Trazado 199" d="M312.327-185.313a34.16,34.16,0,0,1,2.736-23.623c.906-1.765,2.175-3.6,4.116-4.023a2.229,2.229,0,0,1,1.59.174,2.853,2.853,0,0,1,1.081,2.295c.44,4.636-1.54,9.153-3.848,13.2s-3.5,7.384-5.675,11.978" transform="translate(-289.306 229.559)" fill="#717171"/>
        <path id="Trazado_200" data-name="Trazado 200" d="M318.344-171.672a34.162,34.162,0,0,1-.174-23.779c.684-1.864,1.719-3.843,3.595-4.5a2.222,2.222,0,0,1,1.6-.022,2.847,2.847,0,0,1,1.352,2.145c1,4.55-.409,9.274-2.2,13.572s-2.57,7.756-4.169,12.581" transform="translate(-287.056 235.642)" fill="#717171"/>
        <path id="Trazado_201" data-name="Trazado 201" d="M325.522-159.406a34.162,34.162,0,0,1-.174-23.779c.685-1.864,1.72-3.843,3.595-4.5a2.222,2.222,0,0,1,1.6-.024,2.853,2.853,0,0,1,1.353,2.145c1,4.55-.41,9.274-2.2,13.572s-2.57,7.756-4.169,12.581" transform="translate(-283.676 241.419)" fill="#717171"/>
        <path id="Trazado_202" data-name="Trazado 202" d="M337.526-144.405a34.169,34.169,0,0,1-2.636-23.635c.488-1.924,1.312-4,3.109-4.844a2.236,2.236,0,0,1,1.589-.188,2.852,2.852,0,0,1,1.568,1.993c1.468,4.422.553,9.267-.787,13.728s-1.753,7.98-2.843,12.945" transform="translate(-278.697 248.339)" fill="#717171"/>
        <path id="Trazado_203" data-name="Trazado 203" d="M347.22-134.5a36.463,36.463,0,0,1-4.114-22.814c.275-1.964.828-4.129,2.32-5.228a1.839,1.839,0,0,1,1.362-.425c.747.132,1.209.943,1.514,1.721,1.615,4.12,1.2,9.017.381,13.6s-.9,8.1-1.462,13.144" transform="translate(-274.519 253.125)" fill="#717171"/>
        <path id="Trazado_204" data-name="Trazado 204" d="M322.128-183.869a37.014,37.014,0,0,1-22.8-10.03c-1.527-1.443-3.036-3.264-2.962-5.307a2.184,2.184,0,0,1,.574-1.514,2.834,2.834,0,0,1,2.555-.353c4.723,1.006,8.715,4.36,12.157,7.891s6.46,5.741,10.479,9.312" transform="translate(-296.361 235.126)" fill="#717171"/>
        <path id="Trazado_205" data-name="Trazado 205" d="M327.759-175.553a37.015,37.015,0,0,1-24.538-4.3c-1.828-1.036-3.727-2.445-4.144-4.447a2.179,2.179,0,0,1,.2-1.606,2.836,2.836,0,0,1,2.4-.953c4.828-.15,9.505,2.153,13.69,4.761s7.644,4.033,12.4,6.543" transform="translate(-295.113 241.88)" fill="#717171"/>
        <path id="Trazado_206" data-name="Trazado 206" d="M335.825-164.721a37.011,37.011,0,0,1-24.9.7c-2-.65-4.141-1.65-4.948-3.529a2.182,2.182,0,0,1-.131-1.612A2.835,2.835,0,0,1,308-170.577c4.7-1.112,9.743.209,14.366,1.925s8.3,2.423,13.456,3.93" transform="translate(-291.944 249.356)" fill="#717171"/>
        <path id="Trazado_207" data-name="Trazado 207" d="M346.582-147.993a37,37,0,0,1-24.435-4.842c-1.8-1.075-3.673-2.527-4.044-4.538a2.18,2.18,0,0,1,.231-1.6,2.835,2.835,0,0,1,2.417-.9c4.829-.043,9.455,2.365,13.581,5.064s7.552,4.2,12.25,6.816" transform="translate(-286.147 254.589)" fill="#717171"/>
        <path id="Trazado_208" data-name="Trazado 208" d="M356.841-142.2a37.017,37.017,0,0,1-24,6.676c-2.095-.149-4.416-.6-5.653-2.231a2.188,2.188,0,0,1-.515-1.534c.106-.872.944-1.474,1.753-1.892,4.294-2.211,9.506-2.145,14.408-1.592s8.634.353,14.006.572" transform="translate(-282.091 262.489)" fill="#717171"/>
      </g>
    </g>
    <g id="Grupo_144" data-name="Grupo 144" transform="translate(244.096 -86.227)">
      <path id="Trazado_209" data-name="Trazado 209" d="M236.888-158.791c57.871-2.64,116.306,24.66,151.417,70.742" transform="translate(-220.458 179.012)" fill="none" stroke="#717171" stroke-miterlimit="10" stroke-width="1"/>
      <g id="Grupo_143" data-name="Grupo 143">
        <path id="Trazado_210" data-name="Trazado 210" d="M254.363-157.963a34.171,34.171,0,0,0-23.729-1.567c-1.9.574-3.938,1.492-4.7,3.324a2.222,2.222,0,0,0-.118,1.594,2.85,2.85,0,0,0,2.062,1.477c4.482,1.268,9.283.135,13.678-1.4s7.893-2.111,12.8-3.424" transform="translate(-225.718 178.077)" fill="#717171"/>
        <path id="Trazado_211" data-name="Trazado 211" d="M264.481-157.931a34.159,34.159,0,0,0-22.4,7.972c-1.517,1.28-3.023,2.93-2.995,4.914a2.224,2.224,0,0,0,.525,1.511,2.847,2.847,0,0,0,2.478.537c4.619-.613,8.575-3.557,12-6.713s6.409-5.067,10.4-8.221" transform="translate(-219.425 179.497)" fill="#717171"/>
        <path id="Trazado_212" data-name="Trazado 212" d="M279.26-155.366a34.168,34.168,0,0,0-23.211,5.173c-1.662,1.086-3.36,2.539-3.573,4.511a2.222,2.222,0,0,0,.337,1.564,2.851,2.851,0,0,0,2.393.837c4.658-.046,8.946-2.483,12.731-5.2s6.979-4.245,11.323-6.887" transform="translate(-213.126 180.556)" fill="#717171"/>
        <path id="Trazado_213" data-name="Trazado 213" d="M292.825-151.127a34.169,34.169,0,0,0-23.211,5.173c-1.662,1.086-3.358,2.539-3.573,4.513a2.226,2.226,0,0,0,.337,1.562,2.848,2.848,0,0,0,2.395.837c4.657-.044,8.945-2.481,12.729-5.2s6.981-4.247,11.323-6.888" transform="translate(-206.738 182.552)" fill="#717171"/>
        <path id="Trazado_214" data-name="Trazado 214" d="M310.231-143.013a34.165,34.165,0,0,0-23.621,2.742c-1.767.908-3.6,2.177-4.021,4.117a2.228,2.228,0,0,0,.172,1.59,2.849,2.849,0,0,0,2.295,1.08c4.638.438,9.155-1.542,13.2-3.849s7.382-3.5,11.976-5.679" transform="translate(-198.969 186.063)" fill="#717171"/>
        <path id="Trazado_215" data-name="Trazado 215" d="M322.155-135.938A36.459,36.459,0,0,0,299-134.82c-1.853.708-3.838,1.733-4.573,3.435a1.834,1.834,0,0,0-.109,1.422c.3.7,1.191.965,2.017,1.087,4.377.649,9.056-.859,13.34-2.684s7.693-2.7,12.479-4.377" transform="translate(-193.46 189.205)" fill="#717171"/>
        <path id="Trazado_216" data-name="Trazado 216" d="M268.554-150.2a37,37,0,0,0-14.9-19.968c-1.747-1.164-3.863-2.224-5.837-1.693a2.183,2.183,0,0,0-1.346.9,2.838,2.838,0,0,0,.231,2.57c2.042,4.376,6.206,7.513,10.42,10.074s7.046,5.005,11.427,8.119" transform="translate(-216.05 172.872)" fill="#717171"/>
        <path id="Trazado_217" data-name="Trazado 217" d="M277.887-146.61a37.017,37.017,0,0,0-9.7-22.945c-1.421-1.549-3.22-3.083-5.264-3.039a2.185,2.185,0,0,0-1.521.552,2.83,2.83,0,0,0-.39,2.549c.937,4.738,4.233,8.778,7.713,12.27s5.647,6.543,9.161,10.613" transform="translate(-209.153 172.595)" fill="#717171"/>
        <path id="Trazado_218" data-name="Trazado 218" d="M290.12-141.156a37.006,37.006,0,0,0-4.913-24.422c-1.083-1.8-2.539-3.666-4.55-4.03a2.192,2.192,0,0,0-1.6.235,2.838,2.838,0,0,0-.891,2.42c-.028,4.829,2.392,9.448,5.1,13.566s4.223,7.54,6.851,12.231" transform="translate(-201.02 173.977)" fill="#717171"/>
        <path id="Trazado_219" data-name="Trazado 219" d="M308.977-134.458a37.011,37.011,0,0,0-10.207-22.724c-1.453-1.515-3.287-3.009-5.329-2.92a2.184,2.184,0,0,0-1.509.585,2.838,2.838,0,0,0-.334,2.556c1.044,4.716,4.427,8.681,7.986,12.1s5.791,6.415,9.393,10.405" transform="translate(-194.76 178.476)" fill="#717171"/>
        <path id="Trazado_220" data-name="Trazado 220" d="M316.5-125.626a37.009,37.009,0,0,0,1.116-24.886c-.616-2.008-1.581-4.169-3.445-5.007a2.183,2.183,0,0,0-1.611-.157,2.834,2.834,0,0,0-1.449,2.134c-1.191,4.679.046,9.745,1.686,14.4s2.283,8.334,3.7,13.521" transform="translate(-185.728 180.518)" fill="#717171"/>
      </g>
    </g>
    <path id="Trazado_221" data-name="Trazado 221" d="M414.963-138.717A40.954,40.954,0,0,0,383.32-149.4c-7.734.781-16.168,4.913-17.87,12.5-.81,3.611-.527,8.4-3.945,9.823-3.346,1.389-6.579-2.058-10.014-3.211-5.717-1.918-12.244,4.62-10.314,10.335.877,2.6,3.076,4.863,2.893,7.6-.249,3.727-4.855,5.67-8.544,5.091s-6.947-2.733-10.567-3.654-8.306,0-9.579,3.514c-1.139,3.148.827,7.377-1.645,9.633a6.74,6.74,0,0,1-4.02,1.3c-31.339,2.974-65.854,8.6-62.346,14.165.958,1.522,3.408,1.037,5.207,1.009,66.7-1.044,127.3-2.039,193.978.007" transform="translate(28.458 97.198)" fill="#3b393c"/>
    <path id="Trazado_222" data-name="Trazado 222" d="M404.614-184.735c-4.667,13.271-18.528,28.124-34.352,28.124-17.967,0-22.352-14.565-27.59-19.172-12.887-11.33-20.944-13.968-37.343-16.765-10.67-1.82-22.078-16.795-19.313-31.657,5.042-27.1,53.921-40.026,66.3-59.857,10.083-16.158,9.552-25.812,27.194-37.405" transform="translate(46.575 16.261)" fill="none" stroke="#a1dbff" stroke-miterlimit="10" stroke-width="1.056" stroke-dasharray="2.641"/>
    <g id="Grupo_150" data-name="Grupo 150" transform="translate(622.497 -195.491)">
      <path id="Trazado_223" data-name="Trazado 223" d="M514.987-213.433l19.774,77.541-3.761.959-24.466-76.344" transform="translate(-471.88 262.628)" fill="#88d2ff"/>
      <g id="Grupo_145" data-name="Grupo 145" transform="translate(0 6.219)">
        <path id="Trazado_224" data-name="Trazado 224" d="M507.782-197.9c-10.1,2.574-20.844-5.257-23.955-17.458s2.573-24.221,12.67-26.8,20.844,5.256,23.955,17.457S517.88-200.48,507.782-197.9Zm-9.555-37.471c-6.356,1.621-9.773,9.824-7.616,18.283s9.086,14.024,15.442,12.4,9.773-9.823,7.616-18.282S504.583-237,498.227-235.376Z" transform="translate(-482.975 242.65)" fill="#9bdfff"/>
      </g>
      <g id="Grupo_146" data-name="Grupo 146" transform="translate(23.723 25.469)">
        <path id="Trazado_225" data-name="Trazado 225" d="M510.382-226.859l6.012,23.577a2.216,2.216,0,0,1-1.6,2.695h0a2.217,2.217,0,0,1-2.695-1.6l-.68-2.662s-3.157-6.735-11.886-3.958c0,0,10.411-1.3,10.766-1.275S510.054-228.146,510.382-226.859Z" transform="translate(-498.9 230.805)" fill="#c0edff"/>
        <path id="Trazado_226" data-name="Trazado 226" d="M515.863-195.953a5.722,5.722,0,0,1-6.952-4.127,9.2,9.2,0,0,0-1.083-2.88c-1.13-1.6-3.437-2.208-7.656-1.133l-1.069-5.96c2.218-.71,3.814-1.78,5.6-1.655.955-.116,1.749-.212,2.414-.29-.006-1.825-.043-4.233-.071-6.079-.026-1.962,2.518-4.167,2.512-5.575-.01-2.527-2.6-5.081.534-5.5l3.086-.41,6.812,26.659A5.723,5.723,0,0,1,515.863-195.953Z" transform="translate(-499.103 229.563)" fill="#9bdfff"/>
      </g>
      <g id="Grupo_149" data-name="Grupo 149" transform="translate(45.269)">
        <path id="Trazado_227" data-name="Trazado 227" d="M514.26-213.909l.059,80.022,3.882,0,4.783-80.026" transform="translate(-513.511 262.4)" fill="#88d2ff"/>
        <g id="Grupo_147" data-name="Grupo 147">
          <path id="Trazado_228" data-name="Trazado 228" d="M513.751-224.029c-.009-12.591,8.462-22.842,18.882-22.849s18.907,10.23,18.916,22.821-8.462,22.842-18.882,22.849S513.76-211.438,513.751-224.029Zm7-.006c.006,8.731,5.35,15.83,11.908,15.826s11.892-7.112,11.886-15.842-5.35-15.83-11.908-15.826S520.747-232.765,520.753-224.035Z" transform="translate(-513.751 246.878)" fill="#9bdfff"/>
        </g>
        <g id="Grupo_148" data-name="Grupo 148" transform="translate(0.015 23.793)">
          <path id="Trazado_229" data-name="Trazado 229" d="M516.133-228.247c0,1.327.018,24.332.018,24.332a2.214,2.214,0,0,0,2.217,2.214h0a2.216,2.216,0,0,0,2.215-2.217l0-2.749s1.39-7.306,10.535-6.779c0,0-10.408,1.319-10.745,1.433S516.132-229.575,516.133-228.247Z" transform="translate(-512.644 231.825)" fill="#c0edff"/>
          <path id="Trazado_230" data-name="Trazado 230" d="M519.487-197.078a5.723,5.723,0,0,0,5.713-5.72,9.18,9.18,0,0,1,.334-3.058c.7-1.836,2.783-2.992,7.137-2.995l-.441-6.04c-2.326-.138-4.136-.78-5.834-.216-.955.124-1.747.228-2.411.318-.446-1.771-1.008-4.113-1.438-5.907-.459-1.908-3.471-3.413-3.814-4.779-.618-2.451,1.261-5.566-1.881-5.2l-3.09.368.006,27.515A5.722,5.722,0,0,0,519.487-197.078Z" transform="translate(-513.761 230.702)" fill="#9bdfff"/>
        </g>
      </g>
    </g>
    <path id="Trazado_231" data-name="Trazado 231" d="M444.579-281.229c3.329-15.627,19.9-34.525,46.67-28.362,17.226,3.966,21.8,20.182,31.049,30.608,6.85,7.724,16.587,14.068,19.779,24.983,7.363,25.178-2.661,52.444-20.578,61.01-10.982,5.25-39.935,2.124-50.882-3.218" transform="translate(121.442 21.291)" fill="none" stroke="#a1dbff" stroke-miterlimit="10" stroke-width="1.056" stroke-dasharray="2.641"/>
    <g id="Grupo_155" data-name="Grupo 155" transform="translate(692.14 -170.794)">
      <g id="Grupo_151" data-name="Grupo 151">
        <path id="Rectángulo_67" data-name="Rectángulo 67" d="M1.169,0H9.058a1.169,1.169,0,0,1,1.169,1.169V89.263a0,0,0,0,1,0,0H0a0,0,0,0,1,0,0V1.169A1.169,1.169,0,0,1,1.169,0Z" transform="matrix(0.984, 0.178, -0.178, 0.984, 15.863, 0)" fill="#88d2ff"/>
      </g>
      <g id="Grupo_152" data-name="Grupo 152" transform="translate(14.129 0)">
        <path id="Rectángulo_68" data-name="Rectángulo 68" d="M1.169,0H9.058a1.169,1.169,0,0,1,1.169,1.169V9.758a0,0,0,0,1,0,0H0a0,0,0,0,1,0,0V1.169A1.169,1.169,0,0,1,1.169,0Z" transform="matrix(0.984, 0.178, -0.178, 0.984, 1.734, 0)" fill="#fe7d90"/>
      </g>
      <g id="Grupo_154" data-name="Grupo 154" transform="translate(13.589 9.611)" opacity="0.5">
        <g id="Grupo_153" data-name="Grupo 153">
          <rect id="Rectángulo_69" data-name="Rectángulo 69" width="3.063" height="10.228" transform="translate(0 3.014) rotate(-79.762)" fill="#599fd2"/>
        </g>
      </g>
    </g>
    <g id="Grupo_157" data-name="Grupo 157" transform="translate(693.662 -156.618)">
      <rect id="Rectángulo_70" data-name="Rectángulo 70" width="17.654" height="95.512" transform="translate(35.023 0) rotate(21.512)" fill="#c3ecfe"/>
      <g id="Grupo_156" data-name="Grupo 156" transform="translate(12.15 7.23)">
        <line id="Línea_18" data-name="Línea 18" x2="5.413" y2="2.134" transform="translate(32.746)" fill="none" stroke="#ccf3ff" stroke-miterlimit="10" stroke-width="1.056"/>
        <line id="Línea_19" data-name="Línea 19" x2="5.413" y2="2.133" transform="translate(30.927 4.616)" fill="none" stroke="#ccf3ff" stroke-miterlimit="10" stroke-width="1.056"/>
        <line id="Línea_20" data-name="Línea 20" x2="5.413" y2="2.134" transform="translate(29.107 9.231)" fill="none" stroke="#ccf3ff" stroke-miterlimit="10" stroke-width="1.056"/>
        <line id="Línea_21" data-name="Línea 21" x2="8.061" y2="3.177" transform="translate(24.64 12.803)" fill="none" stroke="#ccf3ff" stroke-miterlimit="10" stroke-width="1.056"/>
        <line id="Línea_22" data-name="Línea 22" x2="5.413" y2="2.134" transform="translate(25.469 18.462)" fill="none" stroke="#ccf3ff" stroke-miterlimit="10" stroke-width="1.056"/>
        <line id="Línea_23" data-name="Línea 23" x2="5.413" y2="2.134" transform="translate(23.65 23.078)" fill="none" stroke="#ccf3ff" stroke-miterlimit="10" stroke-width="1.056"/>
        <line id="Línea_24" data-name="Línea 24" x2="5.413" y2="2.134" transform="translate(21.83 27.693)" fill="none" stroke="#ccf3ff" stroke-miterlimit="10" stroke-width="1.056"/>
        <line id="Línea_25" data-name="Línea 25" x2="8.061" y2="3.177" transform="translate(17.363 31.265)" fill="none" stroke="#ccf3ff" stroke-miterlimit="10" stroke-width="1.056"/>
        <line id="Línea_26" data-name="Línea 26" x2="5.413" y2="2.134" transform="translate(18.192 36.924)" fill="none" stroke="#ccf3ff" stroke-miterlimit="10" stroke-width="1.056"/>
        <line id="Línea_27" data-name="Línea 27" x2="5.413" y2="2.133" transform="translate(16.373 41.54)" fill="none" stroke="#ccf3ff" stroke-miterlimit="10" stroke-width="1.056"/>
        <line id="Línea_28" data-name="Línea 28" x2="5.413" y2="2.134" transform="translate(14.554 46.155)" fill="none" stroke="#ccf3ff" stroke-miterlimit="10" stroke-width="1.056"/>
        <line id="Línea_29" data-name="Línea 29" x2="8.061" y2="3.177" transform="translate(10.086 49.727)" fill="none" stroke="#ccf3ff" stroke-miterlimit="10" stroke-width="1.056"/>
        <line id="Línea_30" data-name="Línea 30" x2="5.413" y2="2.134" transform="translate(10.915 55.386)" fill="none" stroke="#ccf3ff" stroke-miterlimit="10" stroke-width="1.056"/>
        <line id="Línea_31" data-name="Línea 31" x2="5.413" y2="2.134" transform="translate(9.096 60.002)" fill="none" stroke="#ccf3ff" stroke-miterlimit="10" stroke-width="1.056"/>
        <line id="Línea_32" data-name="Línea 32" x2="5.413" y2="2.134" transform="translate(7.277 64.617)" fill="none" stroke="#ccf3ff" stroke-miterlimit="10" stroke-width="1.056"/>
        <line id="Línea_33" data-name="Línea 33" x2="8.061" y2="3.177" transform="translate(2.81 68.189)" fill="none" stroke="#ccf3ff" stroke-miterlimit="10" stroke-width="1.056"/>
        <line id="Línea_34" data-name="Línea 34" x2="5.413" y2="2.133" transform="translate(3.639 73.849)" fill="none" stroke="#ccf3ff" stroke-miterlimit="10" stroke-width="1.056"/>
        <line id="Línea_35" data-name="Línea 35" x2="5.413" y2="2.134" transform="translate(1.819 78.464)" fill="none" stroke="#ccf3ff" stroke-miterlimit="10" stroke-width="1.056"/>
        <line id="Línea_36" data-name="Línea 36" x2="5.413" y2="2.134" transform="translate(0 83.08)" fill="none" stroke="#ccf3ff" stroke-miterlimit="10" stroke-width="1.056"/>
      </g>
    </g>
    <path id="Trazado_232" data-name="Trazado 232" d="M581.312-59.877h-81.9L485.658-183.77a2.658,2.658,0,0,1,2.643-2.952H592.424a2.659,2.659,0,0,1,2.643,2.952Z" transform="translate(140.778 79.715)" fill="#9bdfff"/>
    <path id="Trazado_233" data-name="Trazado 233" d="M491.318-74.2,639.3-72.182c1.656.022,6.873-1.593-2.118-7.39-7.616-4.911-31.686-.494-31.686-.494s5.6-2.246,5.578-5.145-2.224-5.445-4.861-6.649a18.045,18.045,0,0,0-8.537-1.124,54.374,54.374,0,0,0-17.193,3.848,5.2,5.2,0,0,0,1.446-7.147,5.2,5.2,0,0,0-7.23-.95c3.7-5.006,9.412-27.194-8.153-36.973-22.018-12.257-38.739-2.171-42.306,5.206-1.811-7.24-10.118-12.723-15.59-14.081-12.479-3.1-20.609-2.181-32.259,3.261-4.121,1.924-9.64,8.5-12.381,12.129-4.291,5.687-4.96,13.25-5.2,20.369q-.267,8.016-.072,16.039" transform="translate(128.074 99.434)" fill="#3b393c"/>
    <g id="Grupo_171" data-name="Grupo 171" transform="translate(426.274 -289.88)">
      <path id="Trazado_234" data-name="Trazado 234" d="M571.515-89.973c0,2.558-49.683,4.63-110.971,4.63s-110.971-2.073-110.971-4.63S399.256-94.6,460.543-94.6,571.515-92.529,571.515-89.973Z" transform="translate(-349.572 412.974)" fill="#e9e8ee"/>
      <path id="Trazado_235" data-name="Trazado 235" d="M430.018-311.048a11.137,11.137,0,0,0-11.136,11.138v14.272h22.274s0-11.335,0-14.272A11.138,11.138,0,0,0,430.018-311.048Zm0,17.529a6.247,6.247,0,0,1-6.247-6.248,6.247,6.247,0,0,1,6.247-6.248,6.249,6.249,0,0,1,6.248,6.248A6.249,6.249,0,0,1,430.018-293.519Z" transform="translate(-316.933 311.048)" fill="#da0617"/>
      <path id="Trazado_236" data-name="Trazado 236" d="M436.267-299.907a6.249,6.249,0,0,0-6.248-6.248,6.38,6.38,0,0,0-.938.094,4.583,4.583,0,0,1,2.536-.606,6.246,6.246,0,0,1,6.247,6.247c0,3.13-1.6,4.825-4.007,5.444A6.832,6.832,0,0,0,436.267-299.907Zm-13.982,12.7v-14.272a10.865,10.865,0,0,1,4.682-9.277,11.134,11.134,0,0,0-8.084,10.7v14.272h22.274V-287.2Z" transform="translate(-316.933 311.187)" fill="#b03d44" opacity="0.45"/>
      <rect id="Rectángulo_71" data-name="Rectángulo 71" width="209.91" height="296.791" rx="9.742" transform="translate(6.017 26.16)" fill="#3e89cc"/>
      <rect id="Rectángulo_72" data-name="Rectángulo 72" width="185.577" height="273.51" transform="translate(18.183 37.8)" fill="#c3ecfe"/>
      <rect id="Rectángulo_73" data-name="Rectángulo 73" width="171.306" height="256.799" transform="translate(25.319 46.156)" fill="#fff"/>
      <path id="Rectángulo_74" data-name="Rectángulo 74" d="M7.023,0H128.009a7.023,7.023,0,0,1,7.023,7.023V18.991a0,0,0,0,1,0,0H0a0,0,0,0,1,0,0V7.023A7.023,7.023,0,0,1,7.023,0Z" transform="translate(43.456 23.236)" fill="#da0617"/>
      <path id="Trazado_237" data-name="Trazado 237" d="M384.332-279.133v-8.078a10.869,10.869,0,0,1,3.361-7.865,10.91,10.91,0,0,0-8.577,10.655v8.08H514.147v-2.792Z" transform="translate(-335.659 318.569)" fill="#b03d44" opacity="0.45"/>
      <g id="Grupo_170" data-name="Grupo 170" transform="translate(28.73 50.573)">
        <g id="Grupo_158" data-name="Grupo 158">
          <circle id="Elipse_2" data-name="Elipse 2" cx="22.019" cy="22.019" r="22.019" transform="translate(8.868 8.868)" fill="#0964af" opacity="0.25"/>
          <circle id="Elipse_3" data-name="Elipse 3" cx="25.572" cy="25.572" r="25.572" transform="translate(0 49.698) rotate(-76.341)" fill="none" stroke="#ff9100" stroke-miterlimit="10" stroke-width="1"/>
          <path id="Trazado_238" data-name="Trazado 238" d="M398.576-250.779a7.915,7.915,0,0,0,3.6-6.634,7.931,7.931,0,0,0-7.931-7.931,7.931,7.931,0,0,0-7.931,7.931,7.915,7.915,0,0,0,3.6,6.634A11.183,11.183,0,0,0,381.3-239.91v6.588a21.884,21.884,0,0,0,12.941,4.232,21.894,21.894,0,0,0,12.941-4.232v-6.588A11.183,11.183,0,0,0,398.576-250.779Z" transform="translate(-363.358 281.997)" fill="#fff"/>
        </g>
        <g id="Grupo_160" data-name="Grupo 160" transform="translate(63.169 10.597)">
          <path id="Trazado_239" data-name="Trazado 239" d="M415.5-269.462l1.067,2.163,2.387.347-1.727,1.683.408,2.377-2.135-1.122-2.135,1.122.408-2.377-1.727-1.683,2.387-.347Z" transform="translate(-412.05 269.462)" fill="#0964af"/>
          <path id="Trazado_240" data-name="Trazado 240" d="M422.586-269.462l1.067,2.163,2.387.347-1.727,1.683.408,2.377-2.135-1.122-2.135,1.122.408-2.377-1.727-1.683,2.387-.347Z" transform="translate(-408.714 269.462)" fill="#0964af"/>
          <path id="Trazado_241" data-name="Trazado 241" d="M429.669-269.462l1.067,2.163,2.387.347-1.727,1.683.408,2.377-2.135-1.122-2.135,1.122.408-2.377-1.727-1.683,2.387-.347Z" transform="translate(-405.379 269.462)" fill="#0964af"/>
          <path id="Trazado_242" data-name="Trazado 242" d="M436.751-269.462l1.067,2.163,2.387.347-1.727,1.683.408,2.377-2.135-1.122-2.135,1.122.408-2.377-1.727-1.683,2.387-.347Z" transform="translate(-402.044 269.462)" fill="#0964af"/>
          <path id="Trazado_243" data-name="Trazado 243" d="M443.834-269.462,444.9-267.3l2.387.347-1.727,1.683.408,2.377-2.135-1.122-2.135,1.122.408-2.377-1.727-1.683,2.387-.347Z" transform="translate(-398.709 269.462)" fill="#0964af"/>
          <g id="Grupo_159" data-name="Grupo 159" transform="translate(1.15 12.286)" opacity="0.15">
            <line id="Línea_37" data-name="Línea 37" x2="22.165" stroke-width="2.113" stroke="#0964af" stroke-linecap="round" stroke-linejoin="round" fill="none"/>
            <line id="Línea_38" data-name="Línea 38" x2="16.854" transform="translate(71.906 8.871)" fill="none" stroke="#0964af" stroke-linecap="round" stroke-linejoin="round" stroke-width="2.113"/>
            <line id="Línea_39" data-name="Línea 39" x2="64.603" transform="translate(0 8.871)" fill="none" stroke="#0964af" stroke-linecap="round" stroke-linejoin="round" stroke-width="2.113"/>
            <line id="Línea_40" data-name="Línea 40" x2="88.76" transform="translate(0 17.743)" fill="none" stroke="#0964af" stroke-linecap="round" stroke-linejoin="round" stroke-width="2.113"/>
            <line id="Línea_41" data-name="Línea 41" x2="28.213" transform="translate(60.547 26.614)" fill="none" stroke="#0964af" stroke-linecap="round" stroke-linejoin="round" stroke-width="2.113"/>
            <line id="Línea_42" data-name="Línea 42" x2="53.524" transform="translate(0 26.614)" fill="none" stroke="#0964af" stroke-linecap="round" stroke-linejoin="round" stroke-width="2.113"/>
            <line id="Línea_43" data-name="Línea 43" x2="59.321" transform="translate(29.439)" fill="none" stroke="#0964af" stroke-linecap="round" stroke-linejoin="round" stroke-width="2.113"/>
          </g>
        </g>
        <g id="Grupo_161" data-name="Grupo 161" transform="translate(2.118 64.329)">
          <circle id="Elipse_4" data-name="Elipse 4" cx="22.019" cy="22.019" r="22.019" transform="translate(0 16.853) rotate(-22.5)" fill="#0964af" opacity="0.25"/>
          <path id="Trazado_244" data-name="Trazado 244" d="M398.576-208.485a7.912,7.912,0,0,0,3.6-6.632,7.931,7.931,0,0,0-7.931-7.933,7.931,7.931,0,0,0-7.931,7.933,7.914,7.914,0,0,0,3.6,6.632,11.183,11.183,0,0,0-8.611,10.869v6.59a21.893,21.893,0,0,0,12.941,4.23,21.893,21.893,0,0,0,12.941-4.23v-6.59A11.183,11.183,0,0,0,398.576-208.485Z" transform="translate(-365.476 237.585)" fill="#fff"/>
        </g>
        <g id="Grupo_163" data-name="Grupo 163" transform="translate(63.169 72.808)">
          <path id="Trazado_245" data-name="Trazado 245" d="M415.5-227.167,416.571-225l2.387.347-1.727,1.683.408,2.377L415.5-221.72l-2.135,1.122.408-2.377-1.727-1.683,2.387-.347Z" transform="translate(-412.05 227.167)" fill="#0964af"/>
          <path id="Trazado_246" data-name="Trazado 246" d="M422.586-227.167,423.654-225l2.387.347-1.727,1.683.408,2.377-2.135-1.122-2.135,1.122.408-2.377-1.727-1.683,2.387-.347Z" transform="translate(-408.714 227.167)" fill="#0964af"/>
          <path id="Trazado_247" data-name="Trazado 247" d="M429.669-227.167,430.736-225l2.387.347-1.727,1.683.408,2.377-2.135-1.122-2.135,1.122.408-2.377-1.727-1.683L428.6-225Z" transform="translate(-405.379 227.167)" fill="#0964af"/>
          <path id="Trazado_248" data-name="Trazado 248" d="M436.751-227.167,437.819-225l2.387.347-1.727,1.683.408,2.377-2.135-1.122-2.135,1.122.408-2.377-1.727-1.683,2.387-.347Z" transform="translate(-402.044 227.167)" fill="#0964af" opacity="0.25"/>
          <path id="Trazado_249" data-name="Trazado 249" d="M443.834-227.167,444.9-225l2.387.347-1.727,1.683.408,2.377-2.135-1.122L441.7-220.6l.408-2.377-1.727-1.683,2.387-.347Z" transform="translate(-398.709 227.167)" fill="#0964af" opacity="0.25"/>
          <g id="Grupo_162" data-name="Grupo 162" transform="translate(1.15 12.286)" opacity="0.15">
            <line id="Línea_44" data-name="Línea 44" x2="39.423" stroke-width="2.113" stroke="#0964af" stroke-linecap="round" stroke-linejoin="round" fill="none"/>
            <line id="Línea_45" data-name="Línea 45" x2="65.422" transform="translate(23.337 8.871)" fill="none" stroke="#0964af" stroke-linecap="round" stroke-linejoin="round" stroke-width="2.113"/>
            <line id="Línea_46" data-name="Línea 46" x2="16.034" transform="translate(0 8.871)" fill="none" stroke="#0964af" stroke-linecap="round" stroke-linejoin="round" stroke-width="2.113"/>
            <line id="Línea_47" data-name="Línea 47" x2="88.76" transform="translate(0 17.743)" fill="none" stroke="#0964af" stroke-linecap="round" stroke-linejoin="round" stroke-width="2.113"/>
            <line id="Línea_48" data-name="Línea 48" x2="18.177" transform="translate(70.582 26.614)" fill="none" stroke="#0964af" stroke-linecap="round" stroke-linejoin="round" stroke-width="2.113"/>
            <line id="Línea_49" data-name="Línea 49" x2="63.56" transform="translate(0 26.614)" fill="none" stroke="#0964af" stroke-linecap="round" stroke-linejoin="round" stroke-width="2.113"/>
            <line id="Línea_50" data-name="Línea 50" x2="42.063" transform="translate(46.697)" fill="none" stroke="#0964af" stroke-linecap="round" stroke-linejoin="round" stroke-width="2.113"/>
          </g>
        </g>
        <g id="Grupo_164" data-name="Grupo 164" transform="translate(2.002 126.425)">
          <circle id="Elipse_5" data-name="Elipse 5" cx="22.019" cy="22.019" r="22.019" transform="translate(0 40.519) rotate(-66.937)" fill="#0964af" opacity="0.25"/>
          <path id="Trazado_250" data-name="Trazado 250" d="M398.576-166.19a7.915,7.915,0,0,0,3.6-6.634,7.931,7.931,0,0,0-7.931-7.931,7.931,7.931,0,0,0-7.931,7.931,7.915,7.915,0,0,0,3.6,6.634,11.18,11.18,0,0,0-8.611,10.869v6.588a21.894,21.894,0,0,0,12.941,4.232,21.894,21.894,0,0,0,12.941-4.232v-6.588A11.181,11.181,0,0,0,398.576-166.19Z" transform="translate(-365.361 195.406)" fill="#fff"/>
        </g>
        <g id="Grupo_166" data-name="Grupo 166" transform="translate(63.169 135.019)">
          <path id="Trazado_251" data-name="Trazado 251" d="M415.5-184.873l1.067,2.163,2.387.347-1.727,1.683.408,2.377-2.135-1.122-2.135,1.122.408-2.377-1.727-1.683,2.387-.347Z" transform="translate(-412.05 184.873)" fill="#0964af"/>
          <path id="Trazado_252" data-name="Trazado 252" d="M422.586-184.873l1.067,2.163,2.387.347-1.727,1.683.408,2.377-2.135-1.122-2.135,1.122.408-2.377-1.727-1.683,2.387-.347Z" transform="translate(-408.714 184.873)" fill="#0964af"/>
          <path id="Trazado_253" data-name="Trazado 253" d="M429.669-184.873l1.067,2.163,2.387.347L431.4-180.68l.408,2.377-2.135-1.122-2.135,1.122.408-2.377-1.727-1.683,2.387-.347Z" transform="translate(-405.379 184.873)" fill="#0964af"/>
          <path id="Trazado_254" data-name="Trazado 254" d="M436.751-184.873l1.067,2.163,2.387.347-1.727,1.683.408,2.377-2.135-1.122-2.135,1.122.408-2.377-1.727-1.683,2.387-.347Z" transform="translate(-402.044 184.873)" fill="#0964af"/>
          <path id="Trazado_255" data-name="Trazado 255" d="M443.834-184.873l1.067,2.163,2.387.347-1.727,1.683.408,2.377-2.135-1.122L441.7-178.3l.408-2.377-1.727-1.683,2.387-.347Z" transform="translate(-398.709 184.873)" fill="#0964af" opacity="0.25"/>
          <g id="Grupo_165" data-name="Grupo 165" transform="translate(1.15 12.286)" opacity="0.15">
            <line id="Línea_51" data-name="Línea 51" x2="22.165" stroke-width="2.113" stroke="#0964af" stroke-linecap="round" stroke-linejoin="round" fill="none"/>
            <line id="Línea_52" data-name="Línea 52" x2="48.097" transform="translate(40.663 8.871)" fill="none" stroke="#0964af" stroke-linecap="round" stroke-linejoin="round" stroke-width="2.113"/>
            <line id="Línea_53" data-name="Línea 53" x2="33.36" transform="translate(0 8.871)" fill="none" stroke="#0964af" stroke-linecap="round" stroke-linejoin="round" stroke-width="2.113"/>
            <line id="Línea_54" data-name="Línea 54" x2="88.76" transform="translate(0 17.743)" fill="none" stroke="#0964af" stroke-linecap="round" stroke-linejoin="round" stroke-width="2.113"/>
            <line id="Línea_55" data-name="Línea 55" x2="68.568" transform="translate(20.191 26.614)" fill="none" stroke="#0964af" stroke-linecap="round" stroke-linejoin="round" stroke-width="2.113"/>
            <line id="Línea_56" data-name="Línea 56" x2="13.169" transform="translate(0 26.614)" fill="none" stroke="#0964af" stroke-linecap="round" stroke-linejoin="round" stroke-width="2.113"/>
            <line id="Línea_57" data-name="Línea 57" x2="59.321" transform="translate(29.439)" fill="none" stroke="#0964af" stroke-linecap="round" stroke-linejoin="round" stroke-width="2.113"/>
          </g>
        </g>
        <g id="Grupo_167" data-name="Grupo 167" transform="translate(8.868 195.502)">
          <circle id="Elipse_6" data-name="Elipse 6" cx="22.019" cy="22.019" r="22.019" fill="#0964af" opacity="0.25"/>
          <path id="Trazado_256" data-name="Trazado 256" d="M398.576-123.9a7.914,7.914,0,0,0,3.6-6.632,7.931,7.931,0,0,0-7.931-7.933,7.931,7.931,0,0,0-7.931,7.933,7.914,7.914,0,0,0,3.6,6.632,11.183,11.183,0,0,0-8.611,10.869v6.59a21.893,21.893,0,0,0,12.941,4.23,21.884,21.884,0,0,0,12.941-4.232v-6.588A11.183,11.183,0,0,0,398.576-123.9Z" transform="translate(-372.227 146.246)" fill="#fff"/>
        </g>
        <g id="Grupo_169" data-name="Grupo 169" transform="translate(63.169 197.231)">
          <path id="Trazado_257" data-name="Trazado 257" d="M415.5-142.578l1.067,2.163,2.387.347-1.727,1.683.408,2.377-2.135-1.122-2.135,1.122.408-2.377-1.727-1.683,2.387-.347Z" transform="translate(-412.05 142.578)" fill="#0964af"/>
          <path id="Trazado_258" data-name="Trazado 258" d="M422.586-142.578l1.067,2.163,2.387.347-1.727,1.683.408,2.377-2.135-1.122-2.135,1.122.408-2.377-1.727-1.683,2.387-.347Z" transform="translate(-408.714 142.578)" fill="#0964af"/>
          <path id="Trazado_259" data-name="Trazado 259" d="M429.669-142.578l1.067,2.163,2.387.347-1.727,1.683.408,2.377-2.135-1.122-2.135,1.122.408-2.377-1.727-1.683,2.387-.347Z" transform="translate(-405.379 142.578)" fill="#0964af"/>
          <path id="Trazado_260" data-name="Trazado 260" d="M436.751-142.578l1.067,2.163,2.387.347-1.727,1.683.408,2.377-2.135-1.122-2.135,1.122.408-2.377-1.727-1.683,2.387-.347Z" transform="translate(-402.044 142.578)" fill="#0964af"/>
          <path id="Trazado_261" data-name="Trazado 261" d="M443.834-142.578l1.067,2.163,2.387.347-1.727,1.683.408,2.377-2.135-1.122-2.135,1.122.408-2.377-1.727-1.683,2.387-.347Z" transform="translate(-398.709 142.578)" fill="#0964af"/>
          <g id="Grupo_168" data-name="Grupo 168" transform="translate(1.15 12.286)" opacity="0.15">
            <line id="Línea_58" data-name="Línea 58" x1="22.165" transform="translate(66.595 26.614)" fill="none" stroke="#0964af" stroke-linecap="round" stroke-linejoin="round" stroke-width="2.113"/>
            <line id="Línea_59" data-name="Línea 59" x1="16.854" transform="translate(0 17.743)" fill="none" stroke="#0964af" stroke-linecap="round" stroke-linejoin="round" stroke-width="2.113"/>
            <line id="Línea_60" data-name="Línea 60" x1="64.603" transform="translate(24.157 17.743)" fill="none" stroke="#0964af" stroke-linecap="round" stroke-linejoin="round" stroke-width="2.113"/>
            <line id="Línea_61" data-name="Línea 61" x1="88.76" transform="translate(0 8.871)" fill="none" stroke="#0964af" stroke-linecap="round" stroke-linejoin="round" stroke-width="2.113"/>
            <line id="Línea_62" data-name="Línea 62" x1="28.213" stroke-width="2.113" stroke="#0964af" stroke-linecap="round" stroke-linejoin="round" fill="none"/>
            <line id="Línea_63" data-name="Línea 63" x1="53.524" transform="translate(35.235)" fill="none" stroke="#0964af" stroke-linecap="round" stroke-linejoin="round" stroke-width="2.113"/>
            <line id="Línea_64" data-name="Línea 64" x1="59.321" transform="translate(0 26.614)" fill="none" stroke="#0964af" stroke-linecap="round" stroke-linejoin="round" stroke-width="2.113"/>
          </g>
        </g>
      </g>
      <path id="Trazado_262" data-name="Trazado 262" d="M440.991-153.842a35.017,35.017,0,0,0,20.129,6.368,35.689,35.689,0,0,0,6.238-.552,35.135,35.135,0,0,0,13.9-5.741L494.392-137.9a5.346,5.346,0,0,0,.146,1.594A4.468,4.468,0,0,0,497.3-132.9c.382.112.834.179,1.046.519a1.847,1.847,0,0,1,.171.655,2.338,2.338,0,0,0,2.5,1.828v-.006l9.754,11.781a1.836,1.836,0,0,0,.744,1.54c.282.193.665.359.7.7a1.331,1.331,0,0,1-.121.5,1.372,1.372,0,0,0,.438,1.44,1.372,1.372,0,0,0,1.5.115,2.253,2.253,0,0,0,2.076,2.153l10.043,12.131a3.911,3.911,0,0,0,3.021,1.421c.125,0,.25-.021.375-.032v-9.583l-7.157-8.646c.075-.1.146-.2.225-.291a6.819,6.819,0,0,1,1.271-1.137l.188.443s2.183-.774,5.473-1.945v-7.228c-4.1,2.527-7.421,4.589-7.421,4.589l.047.112-.282.082a30.228,30.228,0,0,1-3.892.071l-9.787-11.82c1.817-.507,4.223-1.208,6.787-2.036l.16-.053q.49-.157.984-.322l.362-.121c.269-.09.537-.181.806-.274l.412-.141q.377-.13.753-.265l.449-.159q.362-.13.722-.263l.446-.165q.368-.137.732-.278l.41-.157c.256-.1.509-.2.76-.3l.363-.146c.331-.135.657-.272.977-.409l.1-.041c.354-.153.7-.306,1.038-.462.091-.041.178-.082.268-.125.241-.112.479-.224.709-.337.116-.056.228-.113.341-.171.2-.1.39-.2.577-.3.119-.062.234-.125.349-.188.171-.094.338-.187.5-.281.113-.065.224-.131.332-.2.153-.094.3-.187.446-.279.1-.065.2-.129.294-.194.143-.1.275-.193.406-.288.082-.06.166-.122.243-.182.137-.106.257-.21.378-.316.056-.051.119-.1.172-.152.022-.021.038-.041.059-.062v-38.816c-.2.185-.391.35-.591.563-3.945,4.238-6.726,31.392-6.829,32.4-.078.756-11.283,7.24-16.873,10.427a3.145,3.145,0,0,0-.785-2.083,5.46,5.46,0,0,0-2.2-1.368,1.027,1.027,0,0,0-.352-.072L487.163-158.93a35.7,35.7,0,0,0,2.954-3.629,35.05,35.05,0,0,0,5.815-26.368A35.044,35.044,0,0,0,481.4-211.684a35.042,35.042,0,0,0-26.369-5.816,35.055,35.055,0,0,0-22.758,14.534A35.32,35.32,0,0,0,440.991-153.842Zm-2.29-44.635a27.263,27.263,0,0,1,17.7-11.3,27.816,27.816,0,0,1,4.854-.428,27.236,27.236,0,0,1,15.653,4.951,27.252,27.252,0,0,1,11.3,17.7,27.253,27.253,0,0,1-4.523,20.507,27.253,27.253,0,0,1-17.7,11.3,27.267,27.267,0,0,1-20.507-4.525A27.468,27.468,0,0,1,438.7-198.477Z" transform="translate(-313.616 354.84)" fill="#5ab5e2" opacity="0.45" style="mix-blend-mode: multiply;isolation: isolate"/>
    </g>
    <g id="Grupo_178" data-name="Grupo 178" transform="translate(287.065 -173.963)">
      <path id="Trazado_263" data-name="Trazado 263" d="M326.64-87.284c0,1.333-13.909,2.412-31.064,2.412s-31.064-1.08-31.064-2.412S278.419-89.7,295.576-89.7,326.64-88.617,326.64-87.284Z" transform="translate(-250.419 299.367)" fill="#555"/>
      <path id="Trazado_264" data-name="Trazado 264" d="M313.68-170.829s3.439,3.994,4.07,4.226c.388.144,3.02.643,3.888.8a3.386,3.386,0,0,1,.944.268,2.991,2.991,0,0,1,.782.632,24.809,24.809,0,0,1,1.792,2.168,3.881,3.881,0,0,1,.415.622,3.837,3.837,0,0,1,.266.866q.558,2.535.961,5.1a.464.464,0,0,1-.013.269c-.094.2-.394.147-.559.006s-.288-.347-.494-.413l-.006.435a1.027,1.027,0,0,1-.955-.137,7.858,7.858,0,0,1-3-2.9,3.242,3.242,0,0,0-.475-.694c-.529-.524-1.356-.515-2.074-.7a11.815,11.815,0,0,1-1.945-.631c-1.116-.512-1.253-1.852-1.359-2.1a1.035,1.035,0,0,0-.288-.346c-.732-.66-3.641-2.857-3.641-2.857" transform="translate(-228.061 261.162)" fill="#ffbe9d"/>
      <path id="Trazado_265" data-name="Trazado 265" d="M286.916-229.138c1.619.466,2.476,2.559,3.026,3.989a22.286,22.286,0,0,1,1.212,5.385,7.393,7.393,0,0,1-.263,3.788,7.973,7.973,0,0,1-1.058,1.647,3.5,3.5,0,0,1-.762.8,1.172,1.172,0,0,1-1.055.179c-.5-.194-.707-.787-.85-1.308a34.539,34.539,0,0,0-3.874-9.8" transform="translate(-241.575 233.704)" fill="#170d54"/>
      <path id="Trazado_266" data-name="Trazado 266" d="M286.978-221.421c.031-1.083,1.171-1.789,2.158-.668.818.928,1.036,2.689,1.081,3.991.056,1.559-1.153,1.867-2.146,2.084" transform="translate(-239.84 236.756)" fill="#f2a181"/>
      <g id="Grupo_172" data-name="Grupo 172" transform="translate(53.119 198.586)">
        <path id="Trazado_267" data-name="Trazado 267" d="M296.509-95.7a35.912,35.912,0,0,1-.206,4.5c-.235,1.18-4.036.8-4.4.128s.09-6.163.09-6.163" transform="translate(-290.706 97.233)" fill="#ffccb0"/>
        <path id="Trazado_268" data-name="Trazado 268" d="M291.141-91.526c-.1,1.246-.1,3.6-.1,3.6l3.9.938.5-.662a6.811,6.811,0,0,0,2.29,1.247,15.2,15.2,0,0,0,3.674.354c3.218-.215,5.439-1.218,5.55-1.69.462-1.967-3.817-1.721-4.686-1.793a5.637,5.637,0,0,1-4.672-3.28c-.354-.927-.146-1.137-.677-1.013a1.3,1.3,0,0,0-.831.585,2.322,2.322,0,0,1-2.465,1.05,2.791,2.791,0,0,1-1.472-.843A1.6,1.6,0,0,0,291.141-91.526Z" transform="translate(-291.044 98.823)" fill="#d72b3d"/>
      </g>
      <path id="Trazado_269" data-name="Trazado 269" d="M291.322-116.609c.369-5.838-4.346-13.652-4.346-13.652s12.732-6.994,12.925-9.17c0,0,1.743,12.013,2.368,16.251,1.086,7.362-2.587,49.356-2.587,49.356a15.141,15.141,0,0,1-6.2.085s-.662-16.22-3.314-27.207C288.906-106.155,290.882-115.166,291.322-116.609Z" transform="translate(-239.841 275.948)" fill="#3e89cc"/>
      <path id="Trazado_270" data-name="Trazado 270" d="M296.691-168.988c4.779,10.666,9.971,45.085,11.216,56.965.527,5.038-3.668,10.944-8.555,6.387-5.834-5.438-14.038-30.351-16.97-34.749s-13.9-8.428-6.41-30.742" transform="translate(-246.233 261.022)" fill="#3e89cc"/>
      <g id="Grupo_173" data-name="Grupo 173" transform="translate(22.912 200.329)">
        <path id="Trazado_271" data-name="Trazado 271" d="M276.33-96.048s-.431,4.685-.6,5.875-3.985,1.022-4.386.372-.253-6.157-.253-6.157" transform="translate(-270.246 96.048)" fill="#ffccb0"/>
        <path id="Trazado_272" data-name="Trazado 272" d="M270.527-90.348a25.366,25.366,0,0,0,.128,3.3l4.389.3.266-.718a6.913,6.913,0,0,0,2.493.9l3.705.249c2.712.182,4.276-.059,4.377-.532.421-1.975-2.827-2.1-3.671-2.159-2.423-.163-4.969-1.474-5.459-2.742-.354-.921-.156-1.134-.669-1a1.255,1.255,0,0,0-.8.6,2.229,2.229,0,0,1-2.373,1.1,2.656,2.656,0,0,1-1.437-.816A1.607,1.607,0,0,0,270.527-90.348Z" transform="translate(-270.508 97.583)" fill="#d72b3d"/>
      </g>
      <path id="Trazado_273" data-name="Trazado 273" d="M287.68-102.734c-.809,4.149-11.653,2.6-11.419-1.077.334-5.226-3.329-11.981-4.733-36.857-.16-2.842-3.008-3.258-4.129-10.988s3.479-16.312,3.479-16.312l16.685-2.387s6.412,14.466,5.085,28.892S288.639-107.622,287.68-102.734Z" transform="translate(-249.141 261.385)" fill="#3e89cc"/>
      <path id="Trazado_274" data-name="Trazado 274" d="M274.827-123.915s-3.792,7.513-4.238,12.945c-.652,7.946.154,34.1.154,34.1s4.1.891,6.292.246c0,0,9.632-46.406,9.985-51.4S274.827-123.915,274.827-123.915Z" transform="translate(-247.677 280.617)" fill="#3e89cc"/>
      <path id="Trazado_275" data-name="Trazado 275" d="M306.18-202.112c-1.886-2.162-7.871-5.728-15.871-5.476-5.512.174-20.524,1.084-22.2,4.772-.858,1.884-1.778,21.187-.524,27.843.944,5,3.36,17.4,3.36,20.394s-1.608,4.274-.858,5.144c1.68,1.946,13.166,2.762,18.558,2.762,4.8,0,12.969-1.28,13.384-2.817.615-2.283-.937-2.2-1.147-4.589s-1.341-18.173.065-20.466c2.23-3.641,4.445-13.228,4.617-15.971S308.065-199.948,306.18-202.112Z" transform="translate(-249.261 243.846)" fill="#57c6f2"/>
      <path id="Trazado_276" data-name="Trazado 276" d="M271.734-193.214c-.572,1.191-4.457,7.438-4.457,7.438l-.157.747a31.5,31.5,0,0,0,.394,3.337c.944,5,3.36,17.4,3.36,20.394s-1.608,4.274-.858,5.144c.672.778,2.918,1.372,5.707,1.809a7.226,7.226,0,0,1-1.29-1.856c-.224-.878,1.246-.655,1.515-1.393s-3.335-15.2-4.214-22.15S272.306-194.4,271.734-193.214Z" transform="translate(-249.191 250.563)" fill="#5ab5e2" opacity="0.45" style="mix-blend-mode: multiply;isolation: isolate"/>
      <path id="Trazado_277" data-name="Trazado 277" d="M289.719-210.869s.054,6.657.322,6.927a10.6,10.6,0,0,0,1.584.89s-.938,5.785-2.387,5.356-11.023-5.264-11.023-5.264,1.358-.553,1.358-1.09-1.289-11.005-1.289-11.005" transform="translate(-243.966 240.335)" fill="#ffbe9d"/>
      <path id="Trazado_278" data-name="Trazado 278" d="M285.007-228.649c1.4.379,5.073-.381,6.088,1.14s1.9,5.2,2.283,6.215c.757,2.02,1.25,4.179,1.8,6.26.718,2.714,1.9,7.684-.755,9.954a3.534,3.534,0,0,1-2.049,1.038c-1.256.228-2.506.485-3.764.712-1.948.349-4.1.756-6.04.128-2.584-.838-4-4.392-4.666-6.806l-3.8-13.822Z" transform="translate(-245.903 233.934)" fill="#ffbe9d"/>
      <path id="Trazado_279" data-name="Trazado 279" d="M287.459-202.174s.528,24.5,1.525,39.4l-3.6,4.97-2.477-6.223A189.556,189.556,0,0,1,285.248-202Z" transform="translate(-241.83 246.401)" fill="#1b227a"/>
      <path id="Trazado_280" data-name="Trazado 280" d="M288.038-203.142l-.085.337a6.834,6.834,0,0,1-.744,1.815h0L285-200.82s-1.5-.788-1.7-1.634,2.468-2.234,2.468-2.234l.324.128a4.792,4.792,0,0,1,1.924,1.386Z" transform="translate(-241.579 245.217)" fill="#1b227a"/>
      <path id="Trazado_281" data-name="Trazado 281" d="M279.937-209.148a13.741,13.741,0,0,0-3.014,3.042,28.324,28.324,0,0,0,7.347,9.128,12.779,12.779,0,0,1,4.488-5.61S280.73-204.248,279.937-209.148Z" transform="translate(-244.575 243.117)" fill="#eaeaea"/>
      <path id="Trazado_282" data-name="Trazado 282" d="M284.969-202.728a9.5,9.5,0,0,1,4.4,4.18,21.031,21.031,0,0,0-.6-7.758s-1.487-2.5-2.114-2.545C286.915-205.9,284.969-202.728,284.969-202.728Z" transform="translate(-240.786 243.257)" fill="#eaeaea"/>
      <path id="Trazado_283" data-name="Trazado 283" d="M294.039-204.747c4.876,2.709,13.218,30.573,14.146,30.877s19.823,22.559,19.823,22.559l-3,4.057S305.937-161.122,300.46-167.2c-3.855-4.276-11.15-23.368-11.15-23.368S289.163-207.458,294.039-204.747Z" transform="translate(-238.742 245.051)" fill="#57c6f2"/>
      <path id="Trazado_284" data-name="Trazado 284" d="M301.093-173.88c-1.887-1.669-7.874-19.373-7.874-19.373l-1.441,6.062c2.392,5.588,5.45,12.15,7.519,14.444,5.478,6.073,24.552,19.943,24.552,19.943l1.165-1.578S302.979-172.209,301.093-173.88Z" transform="translate(-237.579 250.602)" fill="#5ab5e2" opacity="0.45" style="mix-blend-mode: multiply;isolation: isolate"/>
      <g id="Grupo_175" data-name="Grupo 175" transform="translate(0.413 86.674)">
        <path id="Trazado_285" data-name="Trazado 285" d="M285.291-173.292l-28.958,5.466a1.376,1.376,0,0,0-1.072,1.715l3.88,20.031a1.376,1.376,0,0,0,1.581.987l28.958-5.467a1.374,1.374,0,0,0,1.071-1.715l-3.879-20.029A1.374,1.374,0,0,0,285.291-173.292Z" transform="translate(-255.212 173.316)" fill="#fe7d90"/>
        <path id="Trazado_286" data-name="Trazado 286" d="M284.305-172.255l-27.726,5.234,3.841,19.889,27.726-5.234Z" transform="translate(-254.568 173.816)" fill="#e5f8ff"/>
        <g id="Grupo_174" data-name="Grupo 174" transform="translate(5.511 3.478)">
          <line id="Línea_65" data-name="Línea 65" x1="3.029" y1="16.931" transform="translate(21.935)" fill="none" stroke="#a1d2f0" stroke-linecap="round" stroke-linejoin="round" stroke-width="0.528"/>
          <line id="Línea_66" data-name="Línea 66" x1="3.029" y1="16.931" transform="translate(19.32 0.507)" fill="none" stroke="#a1d2f0" stroke-linecap="round" stroke-linejoin="round" stroke-width="0.528"/>
          <line id="Línea_67" data-name="Línea 67" x1="3.029" y1="16.931" transform="translate(15.557 1.278)" fill="none" stroke="#a1d2f0" stroke-linecap="round" stroke-linejoin="round" stroke-width="0.528"/>
          <line id="Línea_68" data-name="Línea 68" x1="3.029" y1="16.931" transform="translate(11.794 2.048)" fill="none" stroke="#a1d2f0" stroke-linecap="round" stroke-linejoin="round" stroke-width="0.528"/>
          <line id="Línea_69" data-name="Línea 69" x1="3.396" y1="16.931" transform="translate(7.664 2.819)" fill="none" stroke="#a1d2f0" stroke-linecap="round" stroke-linejoin="round" stroke-width="0.528"/>
          <line id="Línea_70" data-name="Línea 70" x1="3.396" y1="16.931" transform="translate(3.902 3.589)" fill="none" stroke="#a1d2f0" stroke-linecap="round" stroke-linejoin="round" stroke-width="0.528"/>
          <line id="Línea_71" data-name="Línea 71" x1="3.535" y1="16.931" transform="translate(0 4.36)" fill="none" stroke="#a1d2f0" stroke-linecap="round" stroke-linejoin="round" stroke-width="0.528"/>
        </g>
      </g>
      <g id="Grupo_176" data-name="Grupo 176" transform="translate(0 38.655)">
        <path id="Trazado_287" data-name="Trazado 287" d="M266.251-163.4s1.144,2.336,1.758,3.523c.4.774,3.442,3.364,4.663,5.428a5.285,5.285,0,0,1,.956,3.268,2.191,2.191,0,0,1-2.359,1.992c-.322-.069-.691-.227-.952-.025a1.25,1.25,0,0,0-.271.416,1.32,1.32,0,0,1-1.3.649,1.322,1.322,0,0,1-1.075-.974,2.171,2.171,0,0,1-2.892-.032,1.729,1.729,0,0,0,.7-1.53,3.456,3.456,0,0,0-.885-1.425,4.43,4.43,0,0,1-.908-2.79c.019-.712.21-1.406.288-2.114a6.691,6.691,0,0,0-.933-4.2" transform="translate(-251.111 226.004)" fill="#ffbe9d"/>
        <path id="Trazado_288" data-name="Trazado 288" d="M278.794-190.148c-.875,3.12-14.2,23.639-14.2,23.639l7.135,26.007-4.067,2.546s-12.687-21.08-12.726-27.032,9.281-27.777,16.093-36.7c2.17-2.84,6.516-4.274,6.516-4.274" transform="translate(-254.931 205.962)" fill="#57c6f2"/>
      </g>
      <path id="Trazado_289" data-name="Trazado 289" d="M278.184-210.712c.877-.513,1.549-1.055,2.12-.215.3.446.487,1.061,1,1.215a1.036,1.036,0,0,0,1.174-.833,3.013,3.013,0,0,0-.193-1.577q-.529-1.7-1.058-3.4a5.124,5.124,0,0,1-.246-3.407,3.744,3.744,0,0,1,1.074-1.375,11.392,11.392,0,0,1,5.22-2.234,55.223,55.223,0,0,0,5.62-1.153,6.059,6.059,0,0,0,2.14-1.078,4.611,4.611,0,0,0,1.517-3.46,7.129,7.129,0,0,0-1.1-3.688,6.156,6.156,0,0,1-.56,1.28,4.776,4.776,0,0,0-1.024-1.6c-.547,3.045-13.369,2.027-16.364,3.37-2.075.931-3.793,1.539-3.73,4.9a1.234,1.234,0,0,1-.407.535c-1.839,1.69-2.636,3.746-2.867,6.8-.284,3.735,1.892,7.778,4.024,10.858a6.961,6.961,0,0,0,1.583,1.893,4.2,4.2,0,0,0,2.98.672c.924-.177,2.746-.1,2.764-1.037.012-.674-1.428-1.875-1.827-2.418" transform="translate(-247.608 232.242)" fill="#1b227a"/>
      <path id="Trazado_290" data-name="Trazado 290" d="M279.4-213.706a1.418,1.418,0,0,1-.24,1.119,1.42,1.42,0,0,1-1.518.215,4.056,4.056,0,0,1-2.558-3.139c-.3-1.617.565-3.232,2.045-2.812a2.186,2.186,0,0,1,1.4,2.127" transform="translate(-245.468 238.765)" fill="#ffbe9d"/>
      <path id="Trazado_291" data-name="Trazado 291" d="M287.349-211.823l-4.113.758a5.732,5.732,0,0,0,4.167,1.537" transform="translate(-241.602 241.857)" fill="#f2a181"/>
      <path id="Trazado_292" data-name="Trazado 292" d="M296.364-112.942c.746-2.44-1.35-6.226-2.381-9.048s-8.783-25.4-8.783-25.4l-1.711,9.108c1.609,3.9,3.367,8.078,5.129,11.764h0l0,0c.678,1.421,1.358,2.764,2.028,3.994,1.225,2.765,2.515,6.5,2.315,9.655-.44,1.443-2.415,10.454-1.158,15.664,2.652,10.988,3.314,27.207,3.314,27.207a15.816,15.816,0,0,0,1.9.225c-.224-4.005-.613-11.076-.656-12.475-.062-1.974-2.559-13.344-2.381-17.842A60.557,60.557,0,0,1,296.364-112.942Z" transform="translate(-241.483 272.201)" fill="#2679c4"/>
      <g id="Grupo_177" data-name="Grupo 177" transform="translate(30.906 92.46)">
        <path id="Trazado_293" data-name="Trazado 293" d="M280.258-160.074l-2.507.594-1.809-9.371,2.513-.531Z" transform="translate(-275.942 169.383)" fill="#fe7d90"/>
        <path id="Trazado_294" data-name="Trazado 294" d="M283.02-166.232a2.28,2.28,0,0,0-2.664-1.817l-2.871.543.846,4.48,2.873-.543A2.28,2.28,0,0,0,283.02-166.232Zm-3.526.666a1.278,1.278,0,0,1,1.019-1.494,1.279,1.279,0,0,1,1.494,1.019,1.279,1.279,0,0,1-1.019,1.494A1.278,1.278,0,0,1,279.494-165.565Z" transform="translate(-275.216 169.992)" fill="#fe7d90"/>
      </g>
    </g>
    <g id="Grupo_185" data-name="Grupo 185" transform="translate(379.91 -157.967)">
      <ellipse id="Elipse_7" data-name="Elipse 7" cx="32.274" cy="2.907" rx="32.274" ry="2.907" transform="translate(0 211.179)" fill="#555"/>
      <g id="Grupo_180" data-name="Grupo 180" transform="translate(39.849 33.653)">
        <path id="Trazado_295" data-name="Trazado 295" d="M373.349-193.77l-19.807-2.661v39.7l10.744,1.444a1.8,1.8,0,0,0,2.008-1.291l8.553-35.152A1.7,1.7,0,0,0,373.349-193.77Z" transform="translate(-341.187 199.456)" fill="#5ab5e2" opacity="0.45" style="mix-blend-mode: multiply;isolation: isolate"/>
        <path id="Trazado_296" data-name="Trazado 296" d="M352.313-197.322l-7.132,31.329a1.5,1.5,0,0,0,1.249,1.818l22.2,3.187a1.5,1.5,0,0,0,1.675-1.152l7.131-31.329a1.5,1.5,0,0,0-1.247-1.817l-22.2-3.187A1.5,1.5,0,0,0,352.313-197.322Z" transform="translate(-345.142 198.488)" fill="#57c6f2"/>
        <path id="Trazado_297" data-name="Trazado 297" d="M353.147-197.008l-6.829,30,22.043,3.165,6.829-30Z" transform="translate(-344.589 199.184)" fill="#e5f8ff"/>
        <g id="Grupo_179" data-name="Grupo 179" transform="translate(6.467 4.862)">
          <line id="Línea_72" data-name="Línea 72" x1="18.732" y1="2.69" transform="translate(3.067)" fill="none" stroke="#a1d2f0" stroke-linecap="round" stroke-linejoin="round" stroke-width="0.528"/>
          <line id="Línea_73" data-name="Línea 73" x1="18.732" y1="2.69" transform="translate(2.437 2.835)" fill="none" stroke="#a1d2f0" stroke-linecap="round" stroke-linejoin="round" stroke-width="0.528"/>
          <line id="Línea_74" data-name="Línea 74" x1="11.706" y1="1.681" transform="translate(1.664 6.194)" fill="none" stroke="#a1d2f0" stroke-linecap="round" stroke-linejoin="round" stroke-width="0.528"/>
          <line id="Línea_75" data-name="Línea 75" x1="11.706" y1="1.681" transform="translate(0.832 8.631)" fill="none" stroke="#a1d2f0" stroke-linecap="round" stroke-linejoin="round" stroke-width="0.528"/>
          <line id="Línea_76" data-name="Línea 76" x1="11.706" y1="1.681" transform="translate(0 11.068)" fill="none" stroke="#a1d2f0" stroke-linecap="round" stroke-linejoin="round" stroke-width="0.528"/>
          <line id="Línea_77" data-name="Línea 77" x1="11.706" y1="1.681" transform="translate(4.293 24.536)" fill="none" stroke="#a1d2f0" stroke-linecap="round" stroke-linejoin="round" stroke-width="0.528"/>
        </g>
      </g>
      <path id="Trazado_298" data-name="Trazado 298" d="M345.611-171.623a9.7,9.7,0,0,0,3.086-2.752q1.324-1.575,2.646-3.151a2.614,2.614,0,0,0,.752-1.406c-1.478-.121-2.43,1.8-3.91,1.914A30.992,30.992,0,0,1,351.123-184a2.14,2.14,0,0,0,.424-1.737,11.272,11.272,0,0,0-4.108,3,21.771,21.771,0,0,0-2.225,2.831,30.5,30.5,0,0,0-3.985,9.787" transform="translate(-307.137 238.146)" fill="#f2a181"/>
      <g id="Grupo_181" data-name="Grupo 181" transform="translate(10.961 78.384)">
        <path id="Trazado_299" data-name="Trazado 299" d="M346.629-154.7l-15.85-13.374s-7.378,10.005-4.6,19.657c1.368,4.747,3.083,7.1,3.827,9.354.7,2.1,5.467,31.888,5.111,34.065s-2.918,8.271-3.895,14.678c-1.177,7.706-.977,32.815-1.889,39.472s5.235,7.783,5.573,5.531c2.89-19.25,10.521-49.248,11.589-58.872S347.132-131.44,346.629-154.7Z" transform="translate(-325.479 168.077)" fill="#ffbe9d"/>
        <path id="Trazado_300" data-name="Trazado 300" d="M342.121-146.084l-6.894,15.818a35.449,35.449,0,0,1,4.81,16.582c.115,3.052-.154,6.109-.069,9.162a3.014,3.014,0,0,0,.093.663c.924-4.525,1.612-8.255,1.881-10.683.755-6.8.759-17.607.519-31.558A2.921,2.921,0,0,0,342.121-146.084Z" transform="translate(-320.924 178.426)" fill="#f2a181"/>
        <path id="Trazado_301" data-name="Trazado 301" d="M335.779-88.357s-1.475,6.985-1.078,7.875,1.825,3.477,3.287,4.413c1.534.981,4.933,2.148,5.206,2.574a1.056,1.056,0,0,1-.2,1.425,7.042,7.042,0,0,1-4.845,1.23c-4.608-.76-5.085-2.8-7.769-3.126-.463-.056-1.322.63-2.6-.026a3.046,3.046,0,0,1-1.795-2.957c.19-1.924,1.271-3.51,2.04-4.933s1.311-7.934,1.311-7.934" transform="translate(-325.283 204.931)" fill="#ffbe9d"/>
        <path id="Trazado_302" data-name="Trazado 302" d="M343.577-74.634c.335-.575.421-1.444.109-1.656a27.236,27.236,0,0,0-2.868-1.727c-.894-.412-2.311-.774-1.812-.5s-.419,1.278-1.256,1.227c-2.889-.176-5.019-2.1-6.663-2.508-2.376-.593-3.37-3.4-3.474-3.851a11.082,11.082,0,0,0-1.7,3.252,5.7,5.7,0,0,0-.353,2.483,5.776,5.776,0,0,1,.265,2.367,4.553,4.553,0,0,0,1.706.616,6.753,6.753,0,0,0,1.839.026l.2-1.492a6.781,6.781,0,0,1,1.468.144,7.981,7.981,0,0,1,2.245,1.047c.33.394.593,1.112,1.03,1.331a9.188,9.188,0,0,0,3.789.946C341.2-72.753,343-73.652,343.577-74.634Z" transform="translate(-325.503 207.833)" fill="#1b227a"/>
      </g>
      <g id="Grupo_182" data-name="Grupo 182" transform="translate(16.383 76.837)">
        <path id="Trazado_303" data-name="Trazado 303" d="M366.563-34.673c-.341-.377-4.013-.974-5.735-1.693a9.9,9.9,0,0,1-4.016-3.826c-.387-.936-.3-5.675-.249-7.665.343-13.707,2.876-47.2,3.243-55.225.637-13.943-1.174-28.334-6.537-50.717l-19.976-15.33s-5.594,10.4-3.721,20.344c1.087,5.769,5.872,6.656,6.681,8.9s12.9,38.392,12.9,38.392a68.024,68.024,0,0,0-2.489,16.379c-.116,7.307,3.2,29.356,3.814,37.755.072,1.642.354,5.57-.129,6.821-.593,1.533-2.1,3.333-2.027,5.267a2.971,2.971,0,0,0,2.27,2.629c1.415.44,2.2-.378,2.69-.4,2.817-.116,3.6,1.821,8.459,1.82a7.7,7.7,0,0,0,4.826-2.008A1.028,1.028,0,0,0,366.563-34.673Z" transform="translate(-329.189 169.129)" fill="#ffbe9d"/>
        <path id="Trazado_304" data-name="Trazado 304" d="M361.032-74.532c.265-.624.231-1.5-.122-1.656a27.8,27.8,0,0,0-3.2-1.239c-.981-.26-2.495-.387-1.942-.2s-.252,1.331-1.122,1.418c-3.005.3-5.475-1.252-7.23-1.39-2.534-.2-3.465-2.806-3.636-3.24a11.6,11.6,0,0,0-1.793,3.495,5.493,5.493,0,0,0-.013,2.512,5.491,5.491,0,0,1,.607,2.3,4.809,4.809,0,0,0,1.849.329,7.328,7.328,0,0,0,1.9-.275v-1.508a7.305,7.305,0,0,1,1.536-.1,5.1,5.1,0,0,1,2.477.877c.412.31.847.834,1.334.956a10.2,10.2,0,0,0,3.946.3C358.84-72.283,360.579-73.469,361.032-74.532Z" transform="translate(-323.24 210.705)" fill="#1b227a"/>
      </g>
      <path id="Trazado_305" data-name="Trazado 305" d="M331.388-168.738c-1.356,1.489-6.188,9.539-6.24,16.092s2.28,10.755,2.49,12.122c1.531,10.011,3.014,22.083,3.014,22.737s5.682,4.445,13.323,3.964c14.118-.888,19.607-4.586,19.607-4.586s-.668-24.246-2.845-36.2c-1.091-5.992-5.84-15.636-5.84-15.636" transform="translate(-314.709 245.439)" fill="#1b227a"/>
      <path id="Trazado_306" data-name="Trazado 306" d="M320.632-186.661s2.274,11.3,2.871,13.31,3.546,14.777,6.343,14.555,18.11-13.007,18.11-13.007l-2.168-4.338-13.481,6.426s-1.218-14.594-2.286-18.07" transform="translate(-316.836 237.181)" fill="#ffbe9d"/>
      <path id="Trazado_307" data-name="Trazado 307" d="M324.175-182.292c1.427,5.044,4.352,10.361,5.226,14.271.177.787,9.511-2.608,9.532-6.113" transform="translate(-315.167 239.767)" fill="#f2a181"/>
      <path id="Trazado_308" data-name="Trazado 308" d="M329.945-197.667s-4.47.477-6.737,2.211c-5.781,4.422-1.308,20.474-1.308,20.474s-.285.856,3.595.638a27.953,27.953,0,0,0,6.991-1.321l-1.121-13.153" transform="translate(-317.016 232.527)" fill="#d72b3d"/>
      <path id="Trazado_309" data-name="Trazado 309" d="M323.383-191.489s-.49,9.437,1.218,14.2a15.4,15.4,0,0,0,3.165-.416Z" transform="translate(-315.571 235.436)" fill="#b03d44"/>
      <path id="Trazado_310" data-name="Trazado 310" d="M347.787-217.515c2.693,3.493,2.161,8.4,1.5,12.765q-.5,3.307-1.008,6.613a4.433,4.433,0,0,1-1.187,2.868,4.434,4.434,0,0,1-3.067.624q.016,2.736.032,5.473-4.682.113-9.365.037a9.021,9.021,0,0,0-.81-3.716c-1.527-.029-2.548-1.562-3.145-2.967a42.845,42.845,0,0,1-1.677-5.008,27.651,27.651,0,0,1-1.324-6.866,9.941,9.941,0,0,1,1.981-6.574,11.936,11.936,0,0,1,3.805-2.842c1.936-1.011,4.261-1.808,6.259-.924" transform="translate(-313.494 222.758)" fill="#ffbe9d"/>
      <path id="Trazado_311" data-name="Trazado 311" d="M346.2-199.486a5.7,5.7,0,0,1,.257-4.091,2.7,2.7,0,0,1,.821-1.038,1.732,1.732,0,0,1,1.668-.172,1.846,1.846,0,0,1,.838.781,23.9,23.9,0,0,0,.587-7.647,9.95,9.95,0,0,0-6.309-8.662c-6.613-2.715-16.112-.032-18.8,6.459-2.028,4.9-1,11.978,2.883,16.086,3.438,3.639,8.383,4.173,12.945,3.424,2.334-.384,5.938-.154,7.146-3.329a.354.354,0,0,0-.365-.471C346.924-198.074,346.265-199.146,346.2-199.486Z" transform="translate(-315.135 221.367)" fill="#1b227a"/>
      <path id="Trazado_312" data-name="Trazado 312" d="M341.652-208.539c.246.385.188.9.419,1.3a3.035,3.035,0,0,0,1.6,1.224c1.122.521.859,2.155.828,2.884.846-.562.984-2.095,1.189-2.873.229-.874.377-1.771.631-2.637a13.435,13.435,0,0,0,.756-2.526,10.377,10.377,0,0,0-3.974-8.392,5.527,5.527,0,0,0-6.187.074,4.831,4.831,0,0,0-1.768,2.248,1.485,1.485,0,0,0-.068,1.2" transform="translate(-310.082 221.788)" fill="#1b227a"/>
      <path id="Trazado_313" data-name="Trazado 313" d="M329.3-196.561c.157-1.069.447-2.315,1.441-2.737a3.171,3.171,0,0,1,.878-.187,72.972,72.972,0,0,1,9.176-.432,8.556,8.556,0,0,1,3.713.652c1.778.888,2.755,2.805,3.614,4.6" transform="translate(-312.754 231.463)" fill="#b03d44"/>
      <path id="Trazado_314" data-name="Trazado 314" d="M357.894-157.962a25.473,25.473,0,0,1-1.761-2.075c-.846-1.664-1.587-8.667-1.3-10.457.312-1.918,2.009-2.949,2.776-7.218a15.784,15.784,0,0,0-2.528-11.6c-1.781-2.589-.725-2.574-1.334-5.745a3.03,3.03,0,0,0-.63-1.578,15.31,15.31,0,0,0-3.563-1.687c-4.953-.768-7.863-.169-12.869.05a43.1,43.1,0,0,0-7.381.934c-2.692.594-5.035,1.308-5.589,4.96a36.785,36.785,0,0,0,1.581,16.715c1.138,3.551,7.934,15.834,6.25,18.211a8.119,8.119,0,0,0-1.465,2.253c-.425,2.483,5.183,3.357,7.584,3.554a93.822,93.822,0,0,0,11.522-.074c2.779-.129,8.853-1.1,9.286-4.532A2.48,2.48,0,0,0,357.894-157.962Z" transform="translate(-315.552 232.038)" fill="#d72b3d"/>
      <path id="Trazado_315" data-name="Trazado 315" d="M348.7-181.611a9.836,9.836,0,0,1-.738,2.864c-.7.359-3.46.953-5.045.229a73.2,73.2,0,0,0-2.28-9.654S348.7-182.534,348.7-181.611Z" transform="translate(-307.415 236.999)" fill="#b03d44"/>
      <path id="Trazado_316" data-name="Trazado 316" d="M332.554-204.5c-1.906-.54-3.958.532-5.228,2.053-1.467,1.755-2.1,4.483-.731,6.315a6.109,6.109,0,0,0,1.987,1.584,10.526,10.526,0,0,0,7.484,1.39c2.523-.619,4.736-2.879,4.707-5.475-.028-2.35-1.743-4.314-3.479-5.9" transform="translate(-314.385 229.244)" fill="#1b227a"/>
      <g id="Grupo_184" data-name="Grupo 184" transform="translate(37.737 36.794)">
        <path id="Trazado_317" data-name="Trazado 317" d="M343.707-182.775s9.148,22.106,13.116,22.106c2.887,0,9.967-20.406,9.967-20.406l-4.473-2.118-4.988,8.546-5.051-15.94" transform="translate(-343.707 199.067)" fill="#ffbe9d"/>
        <path id="Trazado_318" data-name="Trazado 318" d="M355.755-180.461s1.484-2.334,1.375-3.991c-.041-.633-.416-3.638-.1-4.227a17.565,17.565,0,0,1,1.494-2.9c.43-.377,2.02-.981,2.408-.712s.872-.968,1.516-.86a1.368,1.368,0,0,1,1.181,1.236c0,.591.86.7.968,1.128a5.972,5.972,0,0,0,.215,1.128c.16.322.635.163.8.966.156.737-.053.806,0,1.183s.377.341.269,1.056A8.968,8.968,0,0,1,364.857-184a7.084,7.084,0,0,1-2.5,2.527,4.772,4.772,0,0,0-1.455,2.009" transform="translate(-338.033 197.856)" fill="#ffbe9d"/>
        <path id="Trazado_319" data-name="Trazado 319" d="M357.76-196.039a.548.548,0,0,0-.788-.213.708.708,0,0,0-.177.878c.079.178,2.705,6.12,2.705,6.12s.219.252.637-.118c.455-.4.31-.6.31-.6S357.873-195.862,357.76-196.039Z" transform="translate(-337.581 196.352)" fill="#1b227a"/>
        <g id="Grupo_183" data-name="Grupo 183" transform="translate(20.549 5.902)">
          <path id="Trazado_320" data-name="Trazado 320" d="M360.158-192.253a6.273,6.273,0,0,1-1.649,1.72c-.421.4-.369.652-.833,1.058.813-.06.674-.541,1.728-1.3a2.227,2.227,0,0,0,1.089-1.334.184.184,0,0,0-.335-.141Z" transform="translate(-357.677 192.34)" fill="#f2a181"/>
        </g>
      </g>
      <path id="Trazado_321" data-name="Trazado 321" d="M337.987-198.653c2.383.124,9.318-1.093,13.172,2.939,3.229,3.377,5.079,12.231,6.378,15.821-3.233,3.3-6.35,5.956-11.251,4.886-.184-.138-2.617-7.791-4.386-8.471" transform="translate(-308.663 232.025)" fill="#d72b3d"/>
      <path id="Trazado_322" data-name="Trazado 322" d="M343.916-122.079c-.9-5.817-6.471-23.851-6.706-24.346a21.757,21.757,0,0,1-6.045-6.74c-.684,3.952,1.116,7.862,2.806,11.5,2.951,6.357,4.7,13.269,7.241,19.8" transform="translate(-311.946 253.483)" fill="#170d54"/>
    </g>
    <g id="Grupo_190" data-name="Grupo 190" transform="translate(535.647 -164.315)">
      <path id="Trazado_323" data-name="Trazado 323" d="M508.219-193.587c-3.945,4.238-6.727,31.392-6.829,32.4S481.422-149,481.422-149l2.8,3.2s21.169-5.331,24.976-9.936c3.229-3.9,10.693-35.827,10.693-35.827S514.765-200.62,508.219-193.587Z" transform="translate(-396.856 239.536)" fill="#57c6f2"/>
      <ellipse id="Elipse_8" data-name="Elipse 8" cx="59.176" cy="4.051" rx="59.176" ry="4.051" transform="translate(83.025 224.895)" fill="#555"/>
      <g id="Grupo_186" data-name="Grupo 186" transform="translate(167.416 203.72)">
        <path id="Trazado_324" data-name="Trazado 324" d="M540.9-83.517a36.735,36.735,0,0,0,2.433,4.107c.815.987,4.354-1.247,4.379-2.055s-3.143-5.717-3.143-5.717" transform="translate(-536.265 87.183)" fill="#ffbe9d"/>
        <path id="Trazado_325" data-name="Trazado 325" d="M550.76-82.805c.765,1.084,2.021,3.236,2.021,3.236l-3.124,2.851-.816-.352a6.96,6.96,0,0,1-1.464,2.311,16.106,16.106,0,0,1-3.232,2.2c-3.114,1.45-5.72,1.669-6.076,1.3-1.486-1.561,2.631-3.523,3.4-4.035a5.77,5.77,0,0,0,2.59-5.385c-.168-1.028-.474-1.113.087-1.272a1.432,1.432,0,0,1,1.087.109,2.538,2.538,0,0,0,2.861-.3,2.846,2.846,0,0,0,.918-1.521A1.76,1.76,0,0,1,550.76-82.805Z" transform="translate(-537.748 88.83)" fill="#1b227a"/>
      </g>
      <g id="Grupo_187" data-name="Grupo 187" transform="translate(101.897 215.514)">
        <path id="Trazado_326" data-name="Trazado 326" d="M501.539-76.588a9.1,9.1,0,0,0-.684,3.186c.1,1.265,4.3,1.359,4.791.7s.734-6.466.734-6.466" transform="translate(-489.606 79.165)" fill="#ffbe9d"/>
        <path id="Trazado_327" data-name="Trazado 327" d="M510.354-73.057a25.868,25.868,0,0,1-.382,3.467h-4.845l-.238-.775a7.856,7.856,0,0,1-2.805.775h-4.089c-2.995,0-4.694-.365-4.77-.871-.316-2.109,3.261-2.014,4.192-2.014,2.674,0,5.569-1.2,6.2-2.5.457-.944.255-1.183.809-1.006a1.38,1.38,0,0,1,.83.687,2.481,2.481,0,0,0,2.527,1.321,2.974,2.974,0,0,0,1.637-.758A1.694,1.694,0,0,1,510.354-73.057Z" transform="translate(-493.205 80.639)" fill="#1b227a"/>
      </g>
      <path id="Trazado_328" data-name="Trazado 328" d="M527.293-127.574c-.028.178-3.955-4.323-4-4.133-1.561,7.874-8.826,34.206-11.238,41.113v.013a7.271,7.271,0,0,1-3.764,3.445c-3.548.924-9.209-.29-9.662-7.075-.057-.749.113-1.565.028-2.448-1.012-10.452,8.984-56.531,9.24-59.469s6.02-.818,7.638-1.362C523.611-160.168,529.407-138.588,527.293-127.574Z" transform="translate(-388.773 257.684)" fill="#d72b3d"/>
      <path id="Trazado_329" data-name="Trazado 329" d="M512.667-104.126c-1.64-4.9.85-10.649.85-10.649s-13.938-10.717-14.647-4.176c-.071.516-.59,4.948-.588,7.449.006,8.945,3.114,37.27,2.887,54.568v1.128a34.524,34.524,0,0,0,6.413.422c.184,0,.382,0,.582-.013,1.165-10.771,3.685-25.42,4.879-40.156A33.681,33.681,0,0,0,512.667-104.126Z" transform="translate(-388.917 274.947)" fill="#d72b3d"/>
      <path id="Trazado_330" data-name="Trazado 330" d="M545.106-88.142c-2.79-3.467-5.734-5.017-6.6-7.658-2.027-6.137-1.477-31.032-1.671-37.942.577-1.414,5.947-15.545-4.953-25.956,0,0-9.8,4.2-17.645,4.711a40.45,40.45,0,0,1-9.315-.213s5.835,8.8,6.175,12.7c.58,6.629,12.972,46.663,13.918,48.859a26.17,26.17,0,0,0,5.317,7.987c5.494,7.149,18.352,22.181,28.1,36.58l.659.931a26.839,26.839,0,0,0,5.6-3.174C559.44-60.9,553.945-77.16,545.106-88.142Z" transform="translate(-385.792 256.756)" fill="#d72b3d"/>
      <path id="Trazado_331" data-name="Trazado 331" d="M499.834-192.694c1.956-2.246,10.354-5.714,18.657-5.453,5.719.179,23.9,2.052,25.642,5.879.888,1.955.8,20.522-.5,27.43-.98,5.192-3.938,18.539-3.938,21.644s1.667,4.435.888,5.336c-1.743,2.02-14.772,2.924-20.368,2.924-4.981,0-13.459-1.328-13.888-2.924-.638-2.368.972-2.28,1.19-4.763s1.391-18.859-.066-21.238c-2.315-3.777-5.832-14.484-6.01-17.33S497.878-190.449,499.834-192.694Z" transform="translate(-388.471 238.643)" fill="#57c6f2"/>
      <path id="Trazado_332" data-name="Trazado 332" d="M509.636-201.552s-.056,6.909-.334,7.187a10.8,10.8,0,0,1-1.643.924s.972,6,2.477,5.559,11.439-5.463,11.439-5.463-1.409-.574-1.409-1.13S521.5-205.9,521.5-205.9" transform="translate(-384.501 234.999)" fill="#ffbe9d"/>
      <path id="Trazado_333" data-name="Trazado 333" d="M513.656-218.149a4.208,4.208,0,0,0-4.286-.285,6.25,6.25,0,0,0-2.924,3.314,4.923,4.923,0,0,0-.006,4.217,2.585,2.585,0,0,0-1.621,2.464,6.188,6.188,0,0,0,1.275,3.171,2.89,2.89,0,0,0,2.864,1.193,3.252,3.252,0,0,0,1.824-1.277,8.4,8.4,0,0,0,1.028-2.02,55.912,55.912,0,0,0,2.779-10.154" transform="translate(-385.838 228.883)" fill="#170d54"/>
      <path id="Trazado_334" data-name="Trazado 334" d="M517.5-220c-1.447.4-5.264-.394-6.318,1.184s-1.974,5.4-2.368,6.45a67.39,67.39,0,0,0-1.87,6.5c-.744,2.815-2.656,8.119.1,10.476a5.594,5.594,0,0,0,2.812.933c1.3.235,2.6.5,3.905.737,2.021.363,4.26.785,6.268.134,2.683-.871,4.154-4.558,4.842-7.063L528.82-215Z" transform="translate(-385.468 228.357)" fill="#ffbe9d"/>
      <path id="Trazado_335" data-name="Trazado 335" d="M517.724-204.226a1.474,1.474,0,0,0,.381,1.125,1.471,1.471,0,0,0,1.59.04,4.2,4.2,0,0,0,2.261-3.542c.119-1.7-.968-3.262-2.442-2.652a2.262,2.262,0,0,0-1.186,2.358" transform="translate(-379.764 233.355)" fill="#ffbe9d"/>
      <path id="Trazado_336" data-name="Trazado 336" d="M527.012-205.02c-.468,1.424-1.687,4.661-2.982,4.347s.527-5.382,1.646-7.418c-1.63,0-3.639-.256-4.226-1.777-.131-.341-.235-.784-.593-.862-.294-.063-.555.174-.806.337-1.143.741-2.7.018-3.614-1-.209-.232-.453-.5-.763-.481a1.07,1.07,0,0,0-.512.249c-1.878,1.334-6.869,1.268-6.852-1.078-1.643.835-2.708-1.2-2.609-2.592s1.14-3.717,3.405-3.658c-.113-1.712,1.231-2.784,2.592-3.827a8.508,8.508,0,0,1,4.81-1.587c2.705-.124,5.784.993,6.707,3.539a.858.858,0,0,0,.3.488.834.834,0,0,0,.633-.006,6.553,6.553,0,0,1,6,1.191,4.551,4.551,0,0,1,.9,5.764c1.586.375,2.436,2.259,2.187,3.87a8.391,8.391,0,0,1-2.4,4.173,3.205,3.205,0,0,1,1.534,4.479,5.044,5.044,0,0,1-4.892,2.175c.412-1.628-.3-3.5-1.87-3.795" transform="translate(-385.426 226.299)" fill="#1b227a"/>
      <path id="Trazado_337" data-name="Trazado 337" d="M509.6-192.53s-.547,25.426-1.583,40.893l3.739,5.157,2.57-6.457a196.639,196.639,0,0,0-2.431-39.414Z" transform="translate(-384.333 241.294)" fill="#1b227a"/>
      <path id="Trazado_338" data-name="Trazado 338" d="M508.505-193.535l.088.35a7.089,7.089,0,0,0,.774,1.883h0l2.295.178s1.559-.818,1.767-1.7-2.561-2.317-2.561-2.317l-.335.131a4.977,4.977,0,0,0-2,1.437Z" transform="translate(-384.102 240.067)" fill="#170d54"/>
      <path id="Trazado_339" data-name="Trazado 339" d="M519.264-199.767a14.264,14.264,0,0,1,3.129,3.158,29.433,29.433,0,0,1-7.625,9.473,13.254,13.254,0,0,0-4.657-5.82S518.442-194.682,519.264-199.767Z" transform="translate(-383.346 237.886)" fill="#eaeaea"/>
      <path id="Trazado_340" data-name="Trazado 340" d="M511.613-193.1a9.852,9.852,0,0,0-4.563,4.336,21.843,21.843,0,0,1,.619-8.049s1.543-2.592,2.193-2.642C509.593-196.393,511.613-193.1,511.613-193.1Z" transform="translate(-384.848 238.032)" fill="#eaeaea"/>
      <path id="Trazado_341" data-name="Trazado 341" d="M509.142-94.188a11.564,11.564,0,0,1-.553-3.538,2,2,0,0,0,.088-.179v-.013c1.622-4.647,5.438-18.075,8.239-28.768l-4.344-15.484s-2.634,31.516-3.5,33.778-3.552,9.54-3.29,11.108,1.961,4.444,1.7,6.927-.222,24.748-.222,24.866c.859-6.437,1.7-13.268,2.258-20.124A33.681,33.681,0,0,0,509.142-94.188Z" transform="translate(-385.392 265.009)" fill="#b03d44"/>
      <g id="Grupo_188" data-name="Grupo 188">
        <circle id="Elipse_9" data-name="Elipse 9" cx="31.359" cy="31.359" r="31.359" transform="translate(0 35.53) rotate(-34.507)" fill="none" stroke="#1b227a" stroke-miterlimit="10" stroke-width="5.282"/>
        <line id="Línea_78" data-name="Línea 78" x2="46.701" y2="56.409" transform="translate(64.877 67.915)" fill="none" stroke="#1b227a" stroke-linecap="round" stroke-linejoin="round" stroke-width="5.282"/>
      </g>
      <g id="Grupo_189" data-name="Grupo 189" transform="translate(93.173 45.893)">
        <path id="Trazado_342" data-name="Trazado 342" d="M502.307-155.373s-2.577.806-3.908,1.19c-.868.251-4.991-.19-7.416.365a5.49,5.49,0,0,0-3.145,1.612,2.275,2.275,0,0,0,.184,3.2c.282.193.665.359.7.7a1.325,1.325,0,0,1-.121.5,1.371,1.371,0,0,0,.438,1.44,1.369,1.369,0,0,0,1.5.115,2.255,2.255,0,0,0,2.089,2.156,1.8,1.8,0,0,1,.655-1.62,3.588,3.588,0,0,1,1.7-.35,4.583,4.583,0,0,0,2.749-1.309c.522-.522.909-1.162,1.386-1.725a6.971,6.971,0,0,1,3.826-2.293" transform="translate(-487.274 212.899)" fill="#ffbe9d"/>
        <path id="Trazado_343" data-name="Trazado 343" d="M541.778-194a2.107,2.107,0,0,0-.318-.474l-11.992,11.728c-2.857,7.608-8.553,27.625-8.553,27.625s-5.4,2.531-9.02,4.411c-.918.477-3.51,2.221-6.579,4.349-.065.913-.121,1.633-.153,2.008-.218,2.483-.559,2.467.079,4.836a47.412,47.412,0,0,1-1.012,6.263c9.011-2.3,27.606-8.133,28.311-8.515,1.056-.574,6.529-22.593,9.7-35.965C542.73-185.88,542.428-192.571,541.778-194Z" transform="translate(-479.289 194.485)" fill="#5ab5e2" opacity="0.45" style="mix-blend-mode: multiply;isolation: isolate"/>
        <path id="Trazado_344" data-name="Trazado 344" d="M533.751-184.025c-1.109,3.174-7,31.127-7,31.127a53.461,53.461,0,0,0-9.38,3.326C514.567-148.115,495-135.96,495-135.96l1.947,4.583s34.836-12.345,36.362-13.175,15.515-36.124,15.514-42.423c0-3.708-3-7.508-3-7.508" transform="translate(-483.637 194.482)" fill="#57c6f2"/>
      </g>
      <path id="Trazado_345" data-name="Trazado 345" d="M482.771-156.715a2.336,2.336,0,0,1-2.5-1.828,1.816,1.816,0,0,0-.171-.655c-.212-.338-.663-.406-1.046-.519a4.466,4.466,0,0,1-2.759-3.405,4.568,4.568,0,0,1-.006-2.412,2.514,2.514,0,0,1,1.614-1.7.774.774,0,0,1,.472-.012.866.866,0,0,1,.357.315,6.03,6.03,0,0,1,1,2,2.508,2.508,0,0,0,.7,1.443,6.359,6.359,0,0,0,1.013.421,2.9,2.9,0,0,1,1.241,1.764c.372,1.061-.124,3.48.082,4.585" transform="translate(-399.348 253.186)" fill="#ffbe9d"/>
      <path id="Trazado_346" data-name="Trazado 346" d="M484.667-163.756a3.008,3.008,0,0,0-.752-2.527,5.441,5.441,0,0,0-2.2-1.366c-.216-.081-.508-.132-.637.059a.451.451,0,0,0,.046.465c.31.527.963.772,1.3,1.286a5.48,5.48,0,0,1,.3.621,2.708,2.708,0,0,0,1.946,1.464" transform="translate(-397.04 252.976)" fill="#ffbe9d"/>
      <path id="Trazado_347" data-name="Trazado 347" d="M510.272-173.916s-3.3-8.174-3.9-11.547c-1.578,8.019-1.056,22.062-2.387,23.259s-14.631,8.778-14.631,8.778h0c6.282-1.972,13.956-4.8,16.1-7.4,1.213-1.467,3.026-6.891,4.813-13.091Z" transform="translate(-393.121 244.622)" fill="#5ab5e2" opacity="0.45" style="mix-blend-mode: multiply;isolation: isolate"/>
      <path id="Trazado_348" data-name="Trazado 348" d="M509-202.549s5.62,1.225,6.616,1.063-2.162,1.712-2.752,1.783-3.864-.382-3.864-.382Z" transform="translate(-383.87 236.576)" fill="#f2a181"/>
    </g>
    <g id="Grupo_191" data-name="Grupo 191" transform="translate(421.908 -330.751)">
      <path id="Trazado_349" data-name="Trazado 349" d="M359.311-331.316c.065-.152-7.824,4.738-7.824,4.738l2.049,13.288,3.87-9.94,10.19-1.945,14.525-13.659Z" transform="translate(-344.304 338.834)" fill="#80cfff"/>
      <path id="Trazado_350" data-name="Trazado 350" d="M381.465-338.834,352.88-313.291l3.87-9.94Z" transform="translate(-343.648 338.834)" fill="#a4e1ff"/>
      <path id="Trazado_351" data-name="Trazado 351" d="M384.421-338.834,346.6-330.8l7.183,4.224,30.635-12.255-24.716,15.6,12.215,7.542Z" transform="translate(-346.604 338.834)" fill="#c3ecfe"/>
    </g>
    <path id="Trazado_352" data-name="Trazado 352" d="M278.267-217.846c.1.191.7.143.816.169.247.06.147.106,1.334,1.381.877.941,2.2,1.094,4.547.028,1.789-.815,1.393-2.19,1.456-2.883s.212-.828.5-.916.456-.049.894.49a2.908,2.908,0,0,0,3.195,1.465c1.509-.356,2.017-1.093,2.1-2.055.156-1.721.163-1.7.335-1.892s.056-.869-.1-1.225-1.269-.106-2.4.238a13.591,13.591,0,0,0-3.455,1.368c-.582.493-.49.728-.813.831s-.412-.143-1.169-.227a25.87,25.87,0,0,0-4.907,1.183c-1.131.346-2.673.958-2.6,1.34A2.5,2.5,0,0,0,278.267-217.846Zm9.911-3.036c.007-.478.443-.632,1.746-1.094s1.853-.694,2.14-.544.585.8.509,1.8c-.087,1.149-.363,1.722-1.437,2.049a1.922,1.922,0,0,1-2.374-.76A3.936,3.936,0,0,1,288.178-220.882Zm-8.091,2.012c.153-.282,1.917-.756,3.245-1.1s1.769-.454,2.04-.066a3.908,3.908,0,0,1,.321,1.512c.043.78-.06,1.481-2.12,2.12-1.453.449-2.2.187-2.911-.709C280.047-217.888,279.934-218.587,280.087-218.869Z" transform="translate(43 62.416)" fill="#170d54"/>
    <g id="Grupo_193" data-name="Grupo 193" transform="translate(356.312 -241.563)">
      <rect id="Rectángulo_75" data-name="Rectángulo 75" width="70.214" height="50.278" rx="4.52" transform="translate(70.214 50.278) rotate(180)" fill="#c3ecfe"/>
      <path id="Trazado_353" data-name="Trazado 353" d="M344.381-252.316l16.837-4.753-15.012-3.918" transform="translate(-282.055 286.305)" fill="#c3ecfe"/>
      <g id="Grupo_192" data-name="Grupo 192" transform="translate(9.355 8.616)">
        <rect id="Rectángulo_76" data-name="Rectángulo 76" width="10.477" height="2.406" transform="translate(26.097 16.186) rotate(180)" fill="#0964af" opacity="0.25"/>
        <rect id="Rectángulo_77" data-name="Rectángulo 77" width="17.877" height="2.406" transform="translate(26.097 12.592) rotate(180)" fill="#0964af" opacity="0.25"/>
        <rect id="Rectángulo_78" data-name="Rectángulo 78" width="51.406" height="2.973" transform="translate(51.406 26.745) rotate(180)" fill="#0964af" opacity="0.25"/>
        <rect id="Rectángulo_79" data-name="Rectángulo 79" width="51.406" height="2.973" transform="translate(51.406 31.187) rotate(180)" fill="#0964af" opacity="0.25"/>
        <rect id="Rectángulo_80" data-name="Rectángulo 80" width="17.877" height="2.406" transform="translate(26.097 8.999) rotate(180)" fill="#0964af" opacity="0.25"/>
        <rect id="Rectángulo_81" data-name="Rectángulo 81" width="6.563" height="2.406" transform="translate(26.097 5.405) rotate(180)" fill="#0964af" opacity="0.25"/>
        <path id="Trazado_354" data-name="Trazado 354" d="M329.014-261.824a10.519,10.519,0,0,0,10.52,10.518,10.518,10.518,0,0,0,10.518-10.518,10.519,10.519,0,0,0-10.518-10.518A10.52,10.52,0,0,0,329.014-261.824Z" transform="translate(-298.646 272.342)" fill="#0964af" opacity="0.25"/>
        <path id="Trazado_355" data-name="Trazado 355" d="M336.076-262.857a3.781,3.781,0,0,1-1.721-3.168,3.79,3.79,0,0,1,3.791-3.789,3.788,3.788,0,0,1,3.788,3.789,3.779,3.779,0,0,1-1.72,3.168,5.342,5.342,0,0,1,4.113,5.192v3.148a10.449,10.449,0,0,1-6.181,2.021,10.45,10.45,0,0,1-6.182-2.021v-3.148A5.343,5.343,0,0,1,336.076-262.857Z" transform="translate(-297.257 273.532)" fill="#0964af" opacity="0.19"/>
      </g>
    </g>
    <g id="Grupo_194" data-name="Grupo 194" transform="translate(348.811 -267.801)">
      <path id="Trazado_356" data-name="Trazado 356" d="M311.017-286.014a7.313,7.313,0,0,1-9.5,4.085,7.315,7.315,0,0,1-4.086-9.5,7.313,7.313,0,0,1,9.5-4.085A7.313,7.313,0,0,1,311.017-286.014Z" transform="translate(-296.909 296.038)" fill="#fe7d90"/>
      <path id="Trazado_357" data-name="Trazado 357" d="M299.763-291.659,301.4-288l5.5-3.4" transform="translate(-295.564 298.1)" fill="none" stroke="#fff" stroke-linecap="round" stroke-linejoin="round" stroke-width="1.056"/>
    </g>
    <g id="Grupo_195" data-name="Grupo 195" transform="translate(632.361 -322.021)">
      <path id="Trazado_358" data-name="Trazado 358" d="M503.718-328.465a7.315,7.315,0,0,1-3.841,9.6,7.315,7.315,0,0,1-9.6-3.842,7.313,7.313,0,0,1,3.841-9.6A7.313,7.313,0,0,1,503.718-328.465Z" transform="translate(-489.681 332.899)" fill="#fe7d90"/>
      <path id="Trazado_359" data-name="Trazado 359" d="M492.735-325.3l3.747,1.432,1.49-6.287" transform="translate(-488.243 334.194)" fill="none" stroke="#fff" stroke-linecap="round" stroke-linejoin="round" stroke-width="1.056"/>
    </g>
    <g id="Grupo_197" data-name="Grupo 197" transform="translate(692.079 -95.442)">
      <circle id="Elipse_10" data-name="Elipse 10" cx="22.528" cy="22.528" r="22.528" transform="translate(0 52.362) rotate(-80.738)" fill="#fff" stroke="#da0617" stroke-miterlimit="10" stroke-width="1"/>
      <circle id="Elipse_11" data-name="Elipse 11" cx="15.791" cy="15.791" r="15.791" transform="translate(9.75 18.288) rotate(-1.169)" fill="#fff" stroke="#da0617" stroke-miterlimit="10" stroke-width="1"/>
      <path id="Trazado_360" data-name="Trazado 360" d="M559.632-153.057a8.917,8.917,0,0,1-8.917,8.917,8.917,8.917,0,0,1-8.917-8.917,8.917,8.917,0,0,1,8.917-8.917A8.917,8.917,0,0,1,559.632-153.057Z" transform="translate(-524.856 186.811)" fill="#fff" stroke="#da0617" stroke-miterlimit="10" stroke-width="1"/>
      <circle id="Elipse_12" data-name="Elipse 12" cx="3.784" cy="3.784" r="3.784" transform="translate(22.076 29.97)" fill="#fe7d90"/>
      <g id="Grupo_196" data-name="Grupo 196" transform="translate(25.661)">
        <line id="Línea_79" data-name="Línea 79" y1="29.037" x2="29.037" transform="translate(0.198 4.716)" fill="none" stroke="#2f3f91" stroke-miterlimit="10" stroke-width="1.056"/>
        <path id="Trazado_361" data-name="Trazado 361" d="M572.434-173.686H567.26v-5.174" transform="translate(-538.527 178.859)" fill="none" stroke="#2f3f91" stroke-miterlimit="10" stroke-width="1.056"/>
        <path id="Trazado_362" data-name="Trazado 362" d="M570.675-171.927H565.5V-177.1" transform="translate(-539.355 179.688)" fill="none" stroke="#2f3f91" stroke-miterlimit="10" stroke-width="1.056"/>
        <path id="Trazado_363" data-name="Trazado 363" d="M568.891-170.143h-5.174v-5.174" transform="translate(-540.196 180.528)" fill="none" stroke="#2f3f91" stroke-miterlimit="10" stroke-width="1.056"/>
        <path id="Trazado_364" data-name="Trazado 364" d="M552.9-154.151h-5.174v-5.174" transform="translate(-547.726 188.058)" fill="none" stroke="#2f3f91" stroke-miterlimit="10" stroke-width="1.056"/>
      </g>
    </g>
    <path id="Trazado_365" data-name="Trazado 365" d="M229.268-205.1a2.688,2.688,0,0,1-2.689,2.689,2.688,2.688,0,0,1-2.689-2.689,2.688,2.688,0,0,1,2.689-2.689A2.688,2.688,0,0,1,229.268-205.1Z" transform="translate(17.517 69.793)" fill="#ff9100"/>
    <path id="Trazado_366" data-name="Trazado 366" d="M574.328-245.3a2.689,2.689,0,0,1-2.689,2.69,2.689,2.689,0,0,1-2.689-2.69,2.688,2.688,0,0,1,2.689-2.689A2.688,2.688,0,0,1,574.328-245.3Z" transform="translate(180.009 50.864)" fill="#ff9100"/>
    <path id="Trazado_367" data-name="Trazado 367" d="M402.451-314.06a2.688,2.688,0,0,1-2.689,2.689,2.688,2.688,0,0,1-2.689-2.689,2.688,2.688,0,0,1,2.689-2.689A2.688,2.688,0,0,1,402.451-314.06Z" transform="translate(99.071 18.484)" fill="#ff9100"/>
    <g id="Grupo_200" data-name="Grupo 200" transform="translate(408.06 -251.429)">
      <g id="Grupo_198" data-name="Grupo 198" transform="translate(3.024)">
        <path id="Trazado_368" data-name="Trazado 368" d="M340.1-277.141a.859.859,0,0,1-.858-.859v-6.05a.858.858,0,0,1,.858-.858.858.858,0,0,1,.858.858V-278A.859.859,0,0,1,340.1-277.141Z" transform="translate(-339.245 284.907)" fill="#ff9100"/>
      </g>
      <g id="Grupo_199" data-name="Grupo 199" transform="translate(0 3.024)">
        <path id="Trazado_369" data-name="Trazado 369" d="M344.1-281.134h-6.051a.859.859,0,0,1-.858-.858.859.859,0,0,1,.858-.859H344.1a.86.86,0,0,1,.858.859A.859.859,0,0,1,344.1-281.134Z" transform="translate(-337.189 282.851)" fill="#ff9100"/>
      </g>
    </g>
    <g id="Grupo_203" data-name="Grupo 203" transform="translate(259.868 -20.918)">
      <g id="Grupo_201" data-name="Grupo 201" transform="translate(3.024)">
        <path id="Trazado_370" data-name="Trazado 370" d="M239.355-120.429a.858.858,0,0,1-.858-.858v-6.05a.858.858,0,0,1,.858-.858.858.858,0,0,1,.858.858v6.05A.858.858,0,0,1,239.355-120.429Z" transform="translate(-238.497 128.194)" fill="#ff9100"/>
      </g>
      <g id="Grupo_202" data-name="Grupo 202" transform="translate(0 3.024)">
        <path id="Trazado_371" data-name="Trazado 371" d="M243.35-124.423H237.3a.858.858,0,0,1-.858-.858.858.858,0,0,1,.858-.858h6.051a.858.858,0,0,1,.858.858A.858.858,0,0,1,243.35-124.423Z" transform="translate(-236.441 126.138)" fill="#ff9100"/>
      </g>
    </g>
    <g id="Grupo_206" data-name="Grupo 206" transform="translate(772.944 -111.426)">
      <g id="Grupo_204" data-name="Grupo 204" transform="translate(3.026)">
        <path id="Trazado_372" data-name="Trazado 372" d="M588.171-181.96a.858.858,0,0,1-.858-.858v-6.051a.858.858,0,0,1,.858-.858.859.859,0,0,1,.858.858v6.051A.859.859,0,0,1,588.171-181.96Z" transform="translate(-587.313 189.726)" fill="#ff9100"/>
      </g>
      <g id="Grupo_205" data-name="Grupo 205" transform="translate(0 3.026)">
        <path id="Trazado_373" data-name="Trazado 373" d="M592.165-185.954h-6.051a.858.858,0,0,1-.858-.858.858.858,0,0,1,.858-.858h6.051a.858.858,0,0,1,.858.858A.858.858,0,0,1,592.165-185.954Z" transform="translate(-585.256 187.669)" fill="#ff9100"/>
      </g>
    </g>
    <g id="Grupo_208" data-name="Grupo 208" transform="translate(568.539 -356)">
      <g id="Grupo_207" data-name="Grupo 207">
        <rect id="Rectángulo_82" data-name="Rectángulo 82" width="39.314" height="25.56" transform="matrix(0.949, 0.316, -0.316, 0.949, 8.082, 9.117)" fill="#9bdfff"/>
        <path id="Trazado_374" data-name="Trazado 374" d="M489.083-334.453l-37.3-12.43L475.544-356Z" transform="translate(-443.704 356)" fill="#9bdfff"/>
        <rect id="Rectángulo_83" data-name="Rectángulo 83" width="31.472" height="26.584" transform="translate(12.328 8.44) rotate(18.433)" fill="#fff"/>
        <path id="Trazado_375" data-name="Trazado 375" d="M454.373-349.8l-8.082,24.249,22.4-5.053Z" transform="translate(-446.291 358.919)" fill="#c2ebff"/>
        <path id="Trazado_376" data-name="Trazado 376" d="M484.5-341.351,476.416-317.1l-14.893-17.483Z" transform="translate(-439.119 362.898)" fill="#c2ebff"/>
        <path id="Trazado_377" data-name="Trazado 377" d="M483.589-317.967l-37.3-12.43,23.759-9.117Z" transform="translate(-446.291 363.763)" fill="#c2ebff"/>
      </g>
      <path id="Trazado_378" data-name="Trazado 378" d="M446.291-330.4l23.759-9.117,13.539,21.547" transform="translate(-446.291 363.763)" fill="none" stroke="#9bdfff" stroke-miterlimit="10" stroke-width="1.056"/>
    </g>
  </g>
</svg>
